<?xml version="1.0" encoding="UTF-8"?>
<!DOCTYPE svg PUBLIC "-//W3C//DTD SVG 1.1//EN" "http://www.w3.org/Graphics/SVG/1.1/DTD/svg11.dtd">
<svg xmlns="http://www.w3.org/2000/svg" version="1.1" width="1024px" height="1024px" style="shape-rendering:geometricPrecision; text-rendering:geometricPrecision; image-rendering:optimizeQuality; fill-rule:evenodd; clip-rule:evenodd" xmlns:xlink="http://www.w3.org/1999/xlink">
<g><path fill="#fdfdfd" stroke="#fdfdfd" stroke-width="0.5" d="M 239.04,0 c 182.31,0 364.62,0 546.92,0 c 0.13,0.33 0.37,0.54 0.72,0.63 c 51.14,0.71 104.4,13.21 147.34,41.85 c 57.03,39.43 80.33,100.44 87.75,167.16 c 0.67,2.86 1.62,28.24 2.23,28.4 c 0,183.31 0,366.62 0,549.92 c -0.59,0.15 -1.67,23.42 -2.2,26.14 c -9.3,86.89 -46.48,157.43 -131.22,190.11 c -31.89,12.14 -68.9,18.4 -102.85,19.16 c -0.37,0.08 -0.62,0.29 -0.76,0.63 c -182.65,0 -365.29,0 -547.94,0 c -0.63,-1.37 -10.54,-0.28 -12.38,-0.7 c -32.39,-2.72 -60.98,-7.07 -91.72,-18.54 c -85.65,-32.29 -123.38,-103.11 -132.73,-190.66 c -0.54,-2.77 -1.61,-26.06 -2.2,-26.15 c 0,-183.3 0,-366.61 0,-549.91 c 0.51,-0.38 0.75,-0.89 0.72,-1.54 c 0.23,-32.01 7.07,-71.35 18.55,-101.57 c 32.16,-85.43 102.63,-123.09 189.94,-132.67 c 3.05,-0.7 29.84,-1.67 29.83,-2.26 Z M 456.82,94.69 c -4.19,0.48 -12,0.96 -15.49,3.04 c -0.77,0.1 -1.54,0.13 -2.32,0.08 c -35.32,7.19 -68.68,17.19 -101.08,33.18 c -2.74,-0.95 -8.09,2.81 -10.85,3.68 c -5.62,2.99 -11.21,6.03 -16.76,9.14 c -1.55,0.61 -2.64,1.67 -3.28,3.2 c -2.4,1.27 -4.74,2.62 -7.04,4.04 c -2.52,-1 -11.06,6.68 -13.93,7.69 c -3.18,2.13 -16.65,10.73 -17.85,13.26 c -9.89,8.95 -21.3,16.57 -30.48,26.3 c -0.87,0.73 -1.79,1.4 -2.76,2 c -1.76,-0.03 -16.94,15.38 -19.28,17.74 c -0.37,1.33 -5.01,4.9 -4.53,5.94 c -8.61,9.66 -17.09,19.43 -25.44,29.3 c -1.79,3.61 -4.02,6.91 -6.7,9.92 c -3,0.99 -18.86,26.56 -20.71,30.79 c -43.36,74.68 -63.45,158.99 -57.92,245.24 c 0.32,3.98 0.84,7.92 1.55,11.84 c -0.81,5.71 -0.22,11.08 1.67,16.44 c -0.69,3.32 0.93,10.24 1.94,13.64 c 8.36,45.4 23.32,87.2 44.97,127.94 c 8.71,16.51 19.13,32.36 30.07,47.47 c 50.04,68.47 121.16,120.94 201.25,148.81 c 10.92,3.68 21.96,6.99 33.1,9.94 c 0.01,0.33 0.14,0.61 0.4,0.82 c 3.15,2.36 15.4,3.91 20.03,5.01 c 10.43,0.73 20.89,4.61 31.28,4.23 c 1.49,0.22 3.63,1.91 4.49,-0.28 c 24.44,1.97 48.26,2.98 72.77,1.4 c 7.74,-0.34 15.44,-1.08 23.1,-2.22 c 3.01,-0.19 6,-0.53 8.97,-1.04 c 11.08,-1.68 22.09,-3.8 33.01,-6.33 c 19.71,-5.2 39.04,-11.57 57.99,-19.09 c 10.45,-3.3 5.3,-6.07 0,-12.32 c -5.75,-6.34 -11.6,-12.58 -17.54,-18.73 c -3.65,-4.08 -7.37,-8.1 -11.16,-12.04 c -13.43,-14.89 -27.13,-29.52 -41.1,-43.91 c -7.79,-8.64 -15.74,-17.14 -23.86,-25.48 c -3.77,-3.78 -7.46,-7.64 -11.05,-11.59 c -4.09,-4.57 -8.3,-9.02 -12.65,-13.35 c 0.15,-1.68 -0.59,-2.68 -2.22,-2.99 c -2.94,0.28 -5.89,0.34 -8.84,0.18 c -1,0.26 -2,0.56 -2.98,0.92 c -1.69,0.18 -3.39,0.3 -5.09,0.37 c -8.67,-0.2 -17.33,-0.25 -26,-0.14 c -2.63,-0.04 -5.22,-0.37 -7.77,-1 c -5.15,-0.62 -10.15,0.03 -15.33,-0.98 c -0.91,-0.16 -1.38,0.19 -1.41,1.07 c -49.97,-8.12 -89.83,-27.1 -128.3,-59.75 c 0.07,-0.86 -15.46,-15.62 -17.52,-17.79 c -0.76,-1.28 -2.52,-4 -4.12,-4.12 c -6.09,-7.23 -13.3,-15.17 -18.12,-23.22 c 0.6,-2.23 -4.5,-7.63 -5.54,-9.77 c -1.52,-2.24 -2.11,-5.06 -4.03,-6.99 c -4.66,-8.48 -9.09,-17.08 -13.29,-25.78 c -0.24,-0.51 -0.61,-0.9 -1.1,-1.16 c -4.87,-8.98 -10.24,-26.97 -12.95,-37.38 c 1.84,-2.15 -0.87,-10.61 -1.58,-13.33 c -0.41,-2.78 -0.76,-5.58 -1.04,-8.4 c -1.17,-2.28 -0.9,-3.94 -0.76,-6.37 c -0.53,-0.65 -0.89,-1.38 -1.07,-2.19 c -0.51,-4.08 -0.84,-8.18 -1,-12.29 c -0.03,-0.94 -0.48,-1.29 -1.37,-1.06 c 0.04,-0.45 0.08,-0.91 0.12,-1.36 c 0.13,0 0.25,0.01 0.38,0.01 c -0.15,-5.43 -0.23,-10.89 -0.26,-16.37 c -0.41,-2.94 1.19,-12.39 -0.09,-14.23 c 1.83,-4.71 1.68,-11.16 1.93,-16.3 c 1.8,-16.17 6.56,-31.63 11.31,-47.08 c 1.96,-1.67 5.65,-12.19 6.73,-15.19 c 2.13,-4.13 4.13,-8.33 6,-12.6 c 1.05,-1.61 2.14,-3.23 3.27,-4.85 c 2.15,-3.71 3.25,-7.82 6.13,-11.05 c 0.66,-2.7 4.97,-6.53 4.1,-9.18 c 3.15,-4.93 6.53,-9.68 10.14,-14.26 c 0.62,-0.05 1.11,-0.32 1.48,-0.82 c 4.87,-6.1 9.88,-12.1 15.02,-17.98 c 1.45,-2.44 12,-10.69 11.47,-12.82 c 37.82,-35.1 82.18,-56.88 133.1,-65.34 c 0.63,-0.11 1.26,-0.21 1.9,-0.31 c 0.62,2.19 17.98,0.72 14.67,1.91 c -0.35,0.42 -0.75,0.8 -1.19,1.15 c 5.64,1.8 47.78,2.28 52.23,-0.12 c -1.37,-1.29 -4.19,0.76 -5.58,-1.21 c 0.9,-1.59 22.89,1.48 26.54,2.03 c 0.41,-0.43 0.5,-0.93 0.28,-1.5 c 56.4,12.52 103.1,40.97 140.92,84.44 c 29.63,36.06 49.63,78.45 56.19,124.83 c 6.45,50.59 -2.15,98.16 -24.64,143.73 c -3.47,5.57 15.02,17.57 17.84,22.25 c -0.31,1.3 8.93,11.28 10.78,11.74 c 0.62,0.26 1.08,0.69 1.38,1.29 c -0.03,0.59 0.18,1.09 0.62,1.49 c 3.18,2.75 20.23,22.11 22.12,22.3 c 19.68,20.82 39.3,41.71 58.85,62.66 c 1.73,1.59 3.17,1.36 4.32,-0.72 c 51.66,-74.28 83.05,-162.54 78.34,-253.79 c 2.08,-3.92 0.55,-17.34 0.75,-22.21 c -0.74,-1.95 -0.99,-3.97 -0.74,-6.04 c -1.57,-3.07 -1.08,-6.11 -1.45,-9.45 c -0.07,-0.76 -0.47,-1.12 -1.21,-1.08 c -1.14,-2.4 -0.95,-7.41 -1.59,-10.18 c -2.34,-11.42 -4.9,-22.78 -7.68,-34.1 c 1.05,0.3 1.59,-0.08 1.62,-1.13 c -0.09,-2.82 -0.53,-5.57 -1.3,-8.24 c 4.99,-3.07 3.92,-8.64 -1.58,-10.19 c -0.25,0.7 -0.68,1.27 -1.28,1.69 c -0.17,-0.1 -0.34,-0.2 -0.5,-0.3 c -0.23,-1.28 -0.63,-2.49 -1.21,-3.62 c -0.49,0.45 -0.8,1.02 -0.95,1.7 c -0.07,-0.01 -0.14,-0.02 -0.21,-0.03 c -0.92,-3.31 -1.91,-6.6 -2.97,-9.87 c -15.2,-45.85 -37.51,-87.92 -66.94,-126.22 c -4.52,-5.58 -9.07,-11.15 -13.63,-16.7 c 0.11,-0.7 -0.08,-1.32 -0.56,-1.86 c -5.72,-6.21 -11.46,-12.41 -17.22,-18.59 c -4.98,-4.94 -10.01,-9.84 -15.09,-14.7 c -0.93,-1.21 -2.13,-1.85 -3.62,-1.9 c -15.6,-14.17 -32.23,-27 -49.88,-38.5 c -2.62,-1.81 -5.32,-3.5 -8.09,-5.06 c -6.62,-4.41 -13.38,-8.57 -20.29,-12.48 c 0.37,-2.01 -25.79,-12.78 -29.21,-15.3 c -1.81,-0.48 -8.38,-4.16 -9.76,-3.28 c -3.38,-1.25 -8.61,-4.33 -12.08,-4.6 c -8.88,-4.62 -32.23,-11.41 -42.97,-14.03 c 0.53,-1.83 -36.62,-8.95 -40.48,-9.54 c -4.57,-0.54 -9.14,-1.05 -13.71,-1.53 c -2.32,-0.76 -4.69,-1.06 -7.12,-0.89 c -3.7,-1.56 -7.45,-0.46 -11.16,-1.64 c -7.31,-0.03 -15.46,-1.54 -22.6,0.01 c -12.29,-0.56 -24.57,-0.47 -36.84,0.29 c -1.18,-0.51 -2.4,-0.8 -3.67,-0.86 c 2.08,-0.51 4.18,-0.84 6.31,-0.96 c -5.01,0.21 -10.04,0.29 -15.07,0.24 c -2.79,0.75 -5.62,1.07 -8.51,0.94 c -3.94,2.21 -9.57,-0.25 -12.55,1.73 c -0.94,-0.08 -1.88,-0.05 -2.81,0.09 c -0.35,0.44 -0.77,0.76 -1.28,0.96 c 0.54,0.27 0.99,0.66 1.35,1.15 Z M 501.73,615.99 c -3.53,1.35 -3.27,10.93 -0.67,13.5 c 3.32,3.74 6.57,7.54 9.75,11.4 c 8.77,8.84 17.33,17.89 25.67,27.13 c 4.62,5.74 9.39,11.35 14.31,16.82 c 5.34,5.26 10.6,10.63 15.78,16.09 c 7.33,9.05 15,17.45 23.39,25.57 c 4.66,5.34 9.34,10.66 14.04,15.97 c 0.54,0.51 1.18,0.74 1.92,0.71 c 3.17,3.73 6.41,7.43 9.7,11.08 c 12.18,13.21 24.18,26.57 36.01,40.1 c 13.51,12.94 25.52,27.92 38.08,41.9 c 10.29,11.39 20.63,22.72 31.03,33.99 c 11.34,13.19 21.3,23.21 38.32,28.82 c -2.6,0.66 12.31,3.37 12.44,3.02 c 44.33,-0.1 88.67,-0.16 133,-0.17 c 10.01,-1.45 17.97,-9.89 11.73,-19.83 c -0.52,-0.62 -2.1,-3.15 -2.38,-1.13 c -3.74,-4.18 -7.58,-8.27 -11.5,-12.27 c -14,-14.77 -28,-29.54 -42.02,-44.29 c -16.91,-18.33 -33.93,-36.55 -51.06,-54.67 c -10.58,-11.42 -21.23,-22.77 -31.94,-34.07 c -0.47,-0.47 -0.91,-0.97 -1.31,-1.5 c 1.92,-0.29 -7.61,-8.34 -8.01,-8.34 c -7.15,-7.85 -14.45,-15.57 -21.9,-23.13 c 0.23,-1.76 -16.36,-19.48 -18.13,-19.53 c -7.24,-9.1 -16.08,-16.64 -23.69,-25.45 c -0.94,-1.18 -2.02,-2.21 -3.25,-3.09 c 1,-2.55 -8.87,-10.31 -10.51,-12.65 c -1.16,-1.86 -2.65,-3.4 -4.46,-4.6 c -3.08,-3.61 -15.41,-18.69 -20.05,-17.42 c -11.95,-8.64 -26.1,-10.99 -40.55,-10.93 c -37.13,-0.07 -74.76,-0.57 -111.83,0.46 c -4.73,0.78 -8.7,2.95 -11.91,6.51 Z"/></g>
<g><path fill="#f7a729" stroke="#f7a729" stroke-width="0.5" d="M 809.27,769.73 c 17.13,18.12 34.15,36.34 51.06,54.67 c -1.04,0.36 -2.02,0.85 -2.92,1.45 c -0.33,6.41 -1.65,3.05 -6.09,-0.61 c -1.45,-7.18 -20.74,-11.11 -23.22,-8.63 c -4.36,6.99 -9.69,3.47 -9.43,12.61 c -0.95,0.64 -1.91,1.25 -2.88,1.85 c 0.04,1.35 0.03,2.71 -0.04,4.07 c -6.99,0.01 -3.37,1.05 -6.89,6.28 c -0.67,2.12 -10.59,6.32 -7.43,8.09 c -6.29,1.73 -7.06,-2.05 -7.78,5.66 c -2.65,2.06 -3.05,4.96 -6.28,6.64 c 1.17,7.88 -11.61,7.01 -10.72,19.32 c -1.54,1.47 -2.98,3.04 -4.32,4.68 c 0.25,0.95 0.63,1.85 1.13,2.72 c -3.89,4.72 -6.46,4.83 0.92,7.92 c -1.44,0.79 -7.56,0.01 -8.24,1.12 c 0.03,0.47 0.28,0.77 0.77,0.87 c 19.35,0.31 38.71,0.43 58.07,0.35 c 26.17,0.1 52.35,0.12 78.52,0.08 c 1.51,0.07 3.01,0.2 4.5,0.39 c -1.78,0.52 -3.62,0.79 -5.5,0.82 c -42,-0.14 -84,-0.14 -126,0.02 c -5.05,0.14 -10.06,-0.29 -15.01,-1.27 c -0.82,-0.07 -1.63,0.01 -2.43,0.24 c -17.02,-5.61 -26.98,-15.63 -38.32,-28.82 c 0.14,-0.87 0.34,-1.72 0.6,-2.56 c 5.1,-5.62 7.61,-11.24 11.16,-17.81 c 5.9,-7.41 10.99,-14.81 15.88,-23 c 2.01,-3.3 5.32,-5.26 8.04,-7.87 c 4.37,-4.08 3.97,-10.8 7.97,-14.48 c 0.43,-3.13 4.74,-3.88 -0.02,-6.99 c 0.59,-1.62 6.54,-8.68 7.77,-10.96 c 3.38,-6.35 4.73,-14.12 11.32,-18.1 c -0.36,-0.33 -0.72,-0.67 -1.06,-1.02 c 0.89,-1 1.87,-4.43 2.91,-4.28 c 4.89,5.21 10.91,7.58 18.05,7.11 c 0.54,-0.41 1.12,-0.7 1.75,-0.87 c 0.92,0.96 2.02,1.66 3.29,2.11 c 0.53,-0.47 0.82,-1.07 0.87,-1.8 Z"/></g>
<g><path fill="#f9af34" stroke="#f9af34" stroke-width="0.5" d="M 777.33,735.66 c 10.71,11.3 21.36,22.65 31.94,34.07 c -0.05,0.73 -0.34,1.33 -0.87,1.8 c -1.27,-0.45 -2.37,-1.15 -3.29,-2.11 c -0.63,0.17 -1.21,0.46 -1.75,0.87 c -7.14,0.47 -13.16,-1.9 -18.05,-7.11 c -1.04,-0.15 -2.02,3.28 -2.91,4.28 c 0.34,0.35 0.7,0.69 1.06,1.02 c -6.59,3.98 -7.94,11.75 -11.32,18.1 c -1.23,2.28 -7.18,9.34 -7.77,10.96 c 4.76,3.11 0.45,3.86 0.02,6.99 c -4,3.68 -3.6,10.4 -7.97,14.48 c -2.72,2.61 -6.03,4.57 -8.04,7.87 c -4.89,8.19 -9.98,15.59 -15.88,23 c -3.55,6.57 -6.06,12.19 -11.16,17.81 c -0.26,0.84 -0.46,1.69 -0.6,2.56 c -10.4,-11.27 -20.74,-22.6 -31.03,-33.99 c 0.2,-0.52 0.2,-1.05 0,-1.57 c -2.04,-2.57 -2.25,-5.29 -0.63,-8.18 c 2.83,-4.93 7.4,-9.5 10.9,-14.03 c 0.49,-0.2 0.97,-0.17 1.45,0.12 c 0.39,-1 0.52,-2.05 0.4,-3.16 c 2.44,-3.54 7.73,-7.13 9.14,-11.15 c 0.19,-0.93 0.21,-2.9 1.49,-2.97 c 0.38,0.41 0.76,0.83 1.13,1.24 c 0.96,-0.69 -0.18,-2.22 -0.18,-3.14 c 0.64,-0.28 1.32,-0.27 2.02,0.03 c 3.27,-0.44 4.64,-2.34 6.28,-4.92 c -0.79,-0.32 -1.57,-0.67 -2.34,-1.06 c 1.08,-2.35 2.77,-2.98 5.08,-1.88 c 0.11,-0.1 0.23,-0.2 0.34,-0.3 c 0.23,-2.56 0.29,-2.83 1.89,-4.79 c -0.58,-0.43 -1.15,-0.87 -1.7,-1.3 c 1.53,-3.49 2.95,-7.02 4.26,-10.59 c 0.81,-4.37 1.6,-8.74 2.36,-13.12 c 1.62,-3.67 6.78,-7.3 9.28,-10.6 c 1.06,-2.17 1.29,-2.82 3.75,-3.38 c 0.61,-1.08 1.07,-2.22 1.37,-3.42 c -0.93,-4.94 2.91,-13.11 4.45,-18.3 c 0.51,-2.31 3.57,-2.39 3.41,-0.51 c -0.78,0.52 -1.63,0.91 -2.55,1.15 c 1.91,1.97 3.69,4.06 5.33,6.29 c 1.21,1.87 2.17,3.85 2.89,5.94 c 0.48,-0.24 0.93,-0.23 1.33,0.03 c 0.13,1.42 0.07,2.79 -0.17,4.1 c 1.77,1.06 3.48,2.2 5.16,3.42 c 5.07,2.59 10.17,1.39 11.48,-4.55 Z"/></g>
<g><path fill="#f59d1f" stroke="#f59d1f" stroke-width="0.5" d="M 860.33,824.4 c 14.02,14.75 28.02,29.52 42.02,44.29 c -0.15,0.37 -0.39,0.64 -0.74,0.82 c -1.61,-0.44 -6.03,-5.82 -7.06,-5.45 c -0.37,0.84 -0.85,1.58 -1.43,2.24 c -5.33,1.84 -10.74,3.35 -16.23,4.53 c -0.55,0.27 -1.07,0.59 -1.56,0.95 c -0.87,-0.51 -1.82,-0.78 -2.83,-0.78 c -0.67,-0.57 -1.35,-1.12 -2.03,-1.66 c -0.11,0.1 -0.21,0.21 -0.31,0.31 c 0.29,0.91 0.38,1.84 0.27,2.78 c 0.37,0.4 0.77,0.78 1.2,1.12 c -0.25,0.6 -0.71,0.94 -1.37,1.02 c -10,1.59 -19.37,3.39 -20.3,15.46 c -0.44,0.83 -0.82,1.7 -1.13,2.59 c -0.83,0.24 -1.65,0.53 -2.44,0.86 c 3.77,1.23 7.57,2.3 11.41,3.2 c -0.32,0.32 -0.73,0.46 -1.21,0.41 c -9.92,0.12 -20.94,-0.96 -30.7,0.56 c -0.43,0.28 -0.73,0.66 -0.91,1.14 c -19.36,0.08 -38.72,-0.04 -58.07,-0.35 c -0.49,-0.1 -0.74,-0.4 -0.77,-0.87 c 0.68,-1.11 6.8,-0.33 8.24,-1.12 c -7.38,-3.09 -4.81,-3.2 -0.92,-7.92 c -0.5,-0.87 -0.88,-1.77 -1.13,-2.72 c 1.34,-1.64 2.78,-3.21 4.32,-4.68 c -0.89,-12.31 11.89,-11.44 10.72,-19.32 c 3.23,-1.68 3.63,-4.58 6.28,-6.64 c 0.72,-7.71 1.49,-3.93 7.78,-5.66 c -3.16,-1.77 6.76,-5.97 7.43,-8.09 c 3.52,-5.23 -0.1,-6.27 6.89,-6.28 c 0.07,-1.36 0.08,-2.72 0.04,-4.07 c 0.97,-0.6 1.93,-1.21 2.88,-1.85 c -0.26,-9.14 5.07,-5.62 9.43,-12.61 c 2.48,-2.48 21.77,1.45 23.22,8.63 c 4.44,3.66 5.76,7.02 6.09,0.61 c 0.9,-0.6 1.88,-1.09 2.92,-1.45 Z"/></g>
<g><path fill="#f29317" stroke="#f29317" stroke-width="0.5" d="M 902.35,868.69 c 3.92,4 7.76,8.09 11.5,12.27 c 2.23,4.59 3.24,6.77 1.81,12.37 c -1.75,2.99 -4.3,4.97 -7.66,5.93 c -1.49,-0.19 -2.99,-0.32 -4.5,-0.39 c -26.17,0.04 -52.35,0.02 -78.52,-0.08 c 0.18,-0.48 0.48,-0.86 0.91,-1.14 c 9.76,-1.52 20.78,-0.44 30.7,-0.56 c 0.48,0.05 0.89,-0.09 1.21,-0.41 c -3.84,-0.9 -7.64,-1.97 -11.41,-3.2 c 0.79,-0.33 1.61,-0.62 2.44,-0.86 c 0.31,-0.89 0.69,-1.76 1.13,-2.59 c 0.93,-12.07 10.3,-13.87 20.3,-15.46 c 0.66,-0.08 1.12,-0.42 1.37,-1.02 c -0.43,-0.34 -0.83,-0.72 -1.2,-1.12 c 0.11,-0.94 0.02,-1.87 -0.27,-2.78 c 0.1,-0.1 0.2,-0.21 0.31,-0.31 c 0.68,0.54 1.36,1.09 2.03,1.66 c 1.01,0 1.96,0.27 2.83,0.78 c 0.49,-0.36 1.01,-0.68 1.56,-0.95 c 5.49,-1.18 10.9,-2.69 16.23,-4.53 c 0.58,-0.66 1.06,-1.4 1.43,-2.24 c 1.03,-0.37 5.45,5.01 7.06,5.45 c 0.35,-0.18 0.59,-0.45 0.74,-0.82 Z"/></g>
<g><path fill="#edf3fe" stroke="#edf3fe" stroke-width="0.5" d="M 567.88,270.75 c 0.22,0.57 0.13,1.07 -0.28,1.5 c -3.65,-0.55 -25.64,-3.62 -26.54,-2.03 c 1.39,1.97 4.21,-0.08 5.58,1.21 c -4.45,2.4 -46.59,1.92 -52.23,0.12 c 0.44,-0.35 0.84,-0.73 1.19,-1.15 c 3.31,-1.19 -14.05,0.28 -14.67,-1.91 c 7.5,-1.04 15.02,-1.89 22.57,-2.54 c 20.2,-0.96 44.7,0.36 64.38,4.8 Z"/></g>
<g><path fill="#f8cf98" d="M 759.06,899.07 c 0.8,-0.23 1.61,-0.31 2.43,-0.24 c 4.95,0.98 9.96,1.41 15.01,1.27 c 42,-0.16 84,-0.16 126,-0.02 c 1.88,-0.03 3.72,-0.3 5.5,-0.82 c 3.36,-0.96 5.91,-2.94 7.66,-5.93 c 1.43,-5.6 0.42,-7.78 -1.81,-12.37 c 0.28,-2.02 1.86,0.51 2.38,1.13 c 6.24,9.94 -1.72,18.38 -11.73,19.83 c -44.33,0.01 -88.67,0.07 -133,0.17 c -0.13,0.35 -15.04,-2.36 -12.44,-3.02 Z"/></g>
<g><path fill="#fee6b0" d="M 501.73,615.99 c 0.56,1.9 -4.27,7.48 1.29,13.54 c 4.27,5.03 8.62,10 13.05,14.89 c 15.58,15.71 29.64,32.72 44.81,48.78 c 4.08,4.19 8.04,8.49 11.89,12.91 c 9.55,11.7 20.68,21.8 30.52,33.23 c 0.99,1.2 1.87,2.48 2.63,3.84 c -0.74,0.03 -1.38,-0.2 -1.92,-0.71 c -4.7,-5.31 -9.38,-10.63 -14.04,-15.97 c -8.39,-8.12 -16.06,-16.52 -23.39,-25.57 c -5.18,-5.46 -10.44,-10.83 -15.78,-16.09 c -4.92,-5.47 -9.69,-11.08 -14.31,-16.82 c -8.34,-9.24 -16.9,-18.29 -25.67,-27.13 c -3.18,-3.86 -6.43,-7.66 -9.75,-11.4 c -2.6,-2.57 -2.86,-12.15 0.67,-13.5 Z M 666.02,619.95 c 4.64,-1.27 16.97,13.81 20.05,17.42 c 1.81,1.2 3.3,2.74 4.46,4.6 c 1.64,2.34 11.51,10.1 10.51,12.65 c -1.63,-0.47 -2.37,-2.52 -3.49,-3.66 c -8.17,-8.2 -16.14,-16.57 -23.92,-25.1 c -2.58,-1.93 -5.11,-3.9 -7.61,-5.91 Z"/></g>
<g><path fill="#9dc6fa" d="M 337.93,130.99 c -1.78,2.13 -14.65,7.48 -17.93,9.45 c -2.17,1.07 -11.41,6.8 -12.96,6.57 c 0.64,-1.53 1.73,-2.59 3.28,-3.2 c 5.55,-3.11 11.14,-6.15 16.76,-9.14 c 2.76,-0.87 8.11,-4.63 10.85,-3.68 Z M 300,151.05 c 0.23,1.81 -1.86,1.83 -2.94,2.61 c -8.65,6.01 -17.69,11.24 -25.96,17.85 c -0.88,0.65 -1.84,0.81 -2.88,0.49 c 1.2,-2.53 14.67,-11.13 17.85,-13.26 c 2.87,-1.01 11.41,-8.69 13.93,-7.69 Z M 307.82,380.02 c 0.87,2.65 -3.44,6.48 -4.1,9.18 c -2.88,3.23 -3.98,7.34 -6.13,11.05 c -1.13,1.62 -2.22,3.24 -3.27,4.85 c -0.16,-0.69 -0.31,-1.38 -0.46,-2.07 c 1.86,-2.91 11.97,-23.08 13.96,-23.01 Z"/></g>
<g><path fill="#66a7f7" d="M 529.89,91.11 c 7.14,-1.55 15.29,-0.04 22.6,-0.01 c 3.71,1.18 7.46,0.08 11.16,1.64 c 2.43,-0.17 4.8,0.13 7.12,0.89 c 4.57,0.48 9.14,0.99 13.71,1.53 c 3.86,0.59 41.01,7.71 40.48,9.54 c -2.39,1.21 -15.43,-2.55 -18.56,-3.55 c -7.46,-1.44 -16.09,-3.78 -23.65,-3.77 c -2.3,-0.81 -4.66,-1.07 -7.07,-0.78 c -2.06,-1.29 -5.17,-1.3 -7.54,-1.23 c -2.07,-0.85 -4.21,-1.12 -6.42,-0.82 c -2.99,-0.94 -6.06,-1.53 -9.21,-1.75 c -7.01,-0.4 -14.04,-0.61 -21.07,-0.64 c -0.83,0.07 -1.35,-0.28 -1.55,-1.05 Z"/></g>
<g><path fill="#71a9f7" d="M 179.03,263.2 c 0.09,0.69 -0.07,1.33 -0.46,1.91 c -6.05,9.29 -12.53,18.29 -18.28,27.8 c -0.42,0.8 -1.08,1.16 -1.97,1.08 c 1.85,-4.23 17.71,-29.8 20.71,-30.79 Z M 293.86,403.03 c 0.15,0.69 0.3,1.38 0.46,2.07 c -1.87,4.27 -3.87,8.47 -6,12.6 c -1.08,3 -4.77,13.52 -6.73,15.19 c -0.14,0.01 -0.29,0.02 -0.43,0.03 c -0.68,-0.98 4.51,-12.39 5.01,-14.37 c 2.47,-4.78 4.61,-11.32 7.69,-15.52 Z"/></g>
<g><path fill="#5f98f2" d="M 270.28,479.97 c -0.25,5.14 -0.1,11.59 -1.93,16.3 c 1.28,1.84 -0.32,11.29 0.09,14.23 c 0.03,5.48 0.11,10.94 0.26,16.37 c -0.13,0 -0.25,-0.01 -0.38,-0.01 c -0.69,-0.43 -1.27,-0.97 -1.73,-1.6 c 0.04,-9.14 0.09,-18.29 0.15,-27.44 c 0.67,-5.68 1.25,-11.36 1.75,-17.04 c 0.37,-0.7 0.97,-0.97 1.79,-0.81 Z"/></g>
<g><path fill="#acccf9" d="M 268.2,528.22 c 0.89,-0.23 1.34,0.12 1.37,1.06 c 0.16,4.11 0.49,8.21 1,12.29 c 0.18,0.81 0.54,1.54 1.07,2.19 c -0.14,2.43 -0.41,4.09 0.76,6.37 c 0.28,2.82 0.63,5.62 1.04,8.4 c 0.71,2.72 3.42,11.18 1.58,13.33 c -2.1,-0.73 -7.2,-35.35 -6.95,-40.36 c -0.15,-1.1 -0.1,-2.2 0.13,-3.28 Z"/></g>
<g><path fill="#e8eefc" stroke="#e8eefc" stroke-width="0.5" d="M 922.68,407.91 c -1.76,-6.72 -3.56,-13.43 -5.41,-20.12 c 0.07,0.01 0.14,0.02 0.21,0.03 c 0.15,-0.68 0.46,-1.25 0.95,-1.7 c 0.58,1.13 0.98,2.34 1.21,3.62 c 0.16,0.1 0.33,0.2 0.5,0.3 c 0.6,-0.42 1.03,-0.99 1.28,-1.69 c 5.5,1.55 6.57,7.12 1.58,10.19 c 0.77,2.67 1.21,5.42 1.3,8.24 c -0.03,1.05 -0.57,1.43 -1.62,1.13 Z"/></g>
<g><path fill="#6ca4f4" d="M 680.01,123.33 c 1.38,-0.88 7.95,2.8 9.76,3.28 c 3.42,2.52 29.58,13.29 29.21,15.3 c -1.62,0.5 -4.22,-1.29 -5.83,-1.67 c -6.9,-3.41 -13.79,-6.85 -20.69,-10.31 c -3.96,-1.61 -7.87,-3.33 -11.72,-5.18 c -0.54,-0.32 -0.78,-0.8 -0.73,-1.42 Z"/></g>
<g><path fill="#2577f2" stroke="#2577f2" stroke-width="0.5" d="M 739.27,154.39 c 2.77,1.56 5.47,3.25 8.09,5.06 c -0.93,0.56 -1.91,0.99 -2.95,1.28 c 0.15,0.71 0.08,1.37 -0.19,2 c -2.89,0.21 -9.94,-3.82 -10.29,-6.56 c 1.65,-0.34 1.24,-0.67 2.55,-1.72 c 0.94,0.34 1.87,0.32 2.79,-0.06 Z"/></g>
<g><path fill="#7baef6" d="M 234.98,200.3 c 0.14,0.66 -0.01,1.24 -0.45,1.75 c -7.45,6.83 -14.64,13.92 -21.58,21.28 c -0.51,0.46 -1.1,0.68 -1.78,0.65 c -0.48,-1.04 4.16,-4.61 4.53,-5.94 c 2.34,-2.36 17.52,-17.77 19.28,-17.74 Z"/></g>
<g><path fill="#5696f4" d="M 101.95,551.07 c 0.34,0.06 0.56,0.26 0.67,0.59 c 0.2,3.3 0.74,6.54 1.62,9.73 c 0.1,2.74 -0.16,4.76 1.25,7.28 c -0.21,1.78 0.05,3.49 0.79,5.13 c 0.1,2.21 0.23,4.42 0.39,6.62 c -0.19,0.52 -0.56,0.77 -1.11,0.73 c -1.01,-3.4 -2.63,-10.32 -1.94,-13.64 c -1.89,-5.36 -2.48,-10.73 -1.67,-16.44 Z"/></g>
<g><path fill="#7190e4" d="M 770.35,659.03 c 0.62,-0.06 1.16,0.12 1.63,0.52 c 6.63,6.96 13.34,13.81 20.16,20.58 c 0.81,0.73 1.13,1.63 0.95,2.69 c -1.89,-0.19 -18.94,-19.55 -22.12,-22.3 c -0.44,-0.4 -0.65,-0.9 -0.62,-1.49 Z"/></g>
<g><path fill="#73a2f3" d="M 330.05,676.16 c 1.6,0.12 3.36,2.84 4.12,4.12 c 2.06,2.17 17.59,16.93 17.52,17.79 c -0.9,0.05 -1.77,-0.08 -2.62,-0.39 c -0.17,-0.53 -0.45,-1 -0.84,-1.39 c -5.93,-5.67 -11.72,-11.48 -17.37,-17.43 c -0.84,-0.74 -1.11,-1.65 -0.81,-2.7 Z"/></g>
<g><path fill="#fdd48d" d="M 727.98,683.16 c 1.77,0.05 18.36,17.77 18.13,19.53 c -1.98,0.09 -3.75,-4.44 -6.25,-5.04 c 0.08,-0.57 -0.1,-1.05 -0.54,-1.43 c -1.95,-2.12 -11.64,-10.75 -11.34,-13.06 Z"/></g>
<g><path fill="#fdbf4b" stroke="#fdbf4b" stroke-width="0.5" d="M 704.29,657.71 c 7.61,8.81 16.45,16.35 23.69,25.45 c -0.3,2.31 9.39,10.94 11.34,13.06 c 0.44,0.38 0.62,0.86 0.54,1.43 c -3.19,0.34 1.21,4.88 1.81,5.91 c -6.57,1.45 -10.53,-0.95 -16.57,-3.43 c -0.98,-0.09 -3.09,-0.46 -3.73,0.39 c 4.29,6.65 -7.29,10.9 -10.43,15.08 c -2.7,4.09 -3.36,9.31 -6.93,12.82 c -6.96,7.68 -13.92,15.38 -20.88,23.11 c -6.87,5.67 -12.37,8.03 -16.36,16.56 c -3.91,5.09 -10.8,9.98 -15.33,14.81 c -2.1,1.69 -2.2,1.29 -4.27,1.82 c -0.5,2.49 5.9,6.16 4.46,9.64 c -11.83,-13.53 -23.83,-26.89 -36.01,-40.1 c -0.21,-1.83 -0.36,-3.68 -0.46,-5.55 c 10.05,-3.53 14.62,-15.69 19.57,-24.44 c 6.45,-7.84 15.63,-3.48 17.97,-17.08 c 2.22,-0.71 0.44,4.39 1.81,5.47 c 0.34,-0.96 0.56,-1.96 0.65,-3 c 2.01,-4.1 8.33,-8.07 11.49,-11.48 c 5.52,-6.18 10.9,-12.49 16.14,-18.91 c 5.44,-4.51 10.71,-9.2 15.82,-14.07 c 2.21,-1.21 3.74,-2.16 5.91,-0.57 c 0.31,-0.68 0.28,-1.38 -0.09,-2.1 c 0.45,-0.26 0.86,-0.56 1.24,-0.91 c -0.3,-0.88 -0.9,-1.47 -1.8,-1.76 c 0.12,-0.72 0.26,-1.44 0.42,-2.15 Z"/></g>
<g><path fill="#fbd28f" d="M 768.01,725.82 c 0.4,0 9.93,8.05 8.01,8.34 c -3.09,-1.37 -6.29,-5.44 -8.73,-7.88 c 0.13,-0.31 0.37,-0.47 0.72,-0.46 Z"/></g>
<g><path fill="#fbb73e" stroke="#fbb73e" stroke-width="0.5" d="M 739.86,697.65 c 2.5,0.6 4.27,5.13 6.25,5.04 c 7.45,7.56 14.75,15.28 21.9,23.13 c -0.35,-0.01 -0.59,0.15 -0.72,0.46 c 2.44,2.44 5.64,6.51 8.73,7.88 c 0.4,0.53 0.84,1.03 1.31,1.5 c -1.31,5.94 -6.41,7.14 -11.48,4.55 c -1.68,-1.22 -3.39,-2.36 -5.16,-3.42 c 0.24,-1.31 0.3,-2.68 0.17,-4.1 c -0.4,-0.26 -0.85,-0.27 -1.33,-0.03 c -0.72,-2.09 -1.68,-4.07 -2.89,-5.94 c -1.64,-2.23 -3.42,-4.32 -5.33,-6.29 c 0.92,-0.24 1.77,-0.63 2.55,-1.15 c 0.16,-1.88 -2.9,-1.8 -3.41,0.51 c -1.54,5.19 -5.38,13.36 -4.45,18.3 c -0.3,1.2 -0.76,2.34 -1.37,3.42 c -2.46,0.56 -2.69,1.21 -3.75,3.38 c -2.5,3.3 -7.66,6.93 -9.28,10.6 c -0.76,4.38 -1.55,8.75 -2.36,13.12 c -1.31,3.57 -2.73,7.1 -4.26,10.59 c 0.55,0.43 1.12,0.87 1.7,1.3 c -1.6,1.96 -1.66,2.23 -1.89,4.79 c -0.11,0.1 -0.23,0.2 -0.34,0.3 c -2.31,-1.1 -4,-0.47 -5.08,1.88 c 0.77,0.39 1.55,0.74 2.34,1.06 c -1.64,2.58 -3.01,4.48 -6.28,4.92 c -0.7,-0.3 -1.38,-0.31 -2.02,-0.03 c 0,0.92 1.14,2.45 0.18,3.14 c -0.37,-0.41 -0.75,-0.83 -1.13,-1.24 c -1.28,0.07 -1.3,2.04 -1.49,2.97 c -1.41,4.02 -6.7,7.61 -9.14,11.15 c 0.12,1.11 -0.01,2.16 -0.4,3.16 c -0.48,-0.29 -0.96,-0.32 -1.45,-0.12 c -3.5,4.53 -8.07,9.1 -10.9,14.03 c -1.62,2.89 -1.41,5.61 0.63,8.18 c 0.2,0.52 0.2,1.05 0,1.57 c -12.56,-13.98 -24.57,-28.96 -38.08,-41.9 c 1.44,-3.48 -4.96,-7.15 -4.46,-9.64 c 2.07,-0.53 2.17,-0.13 4.27,-1.82 c 4.53,-4.83 11.42,-9.72 15.33,-14.81 c 3.99,-8.53 9.49,-10.89 16.36,-16.56 c 6.96,-7.73 13.92,-15.43 20.88,-23.11 c 3.57,-3.51 4.23,-8.73 6.93,-12.82 c 3.14,-4.18 14.72,-8.43 10.43,-15.08 c 0.64,-0.85 2.75,-0.48 3.73,-0.39 c 6.04,2.48 10,4.88 16.57,3.43 c -0.6,-1.03 -5,-5.57 -1.81,-5.91 Z"/></g>
<g><path fill="#c9e2fc" d="M 493.05,91.4 c -1.99,0.43 -4,0.59 -6.03,0.49 c -9.27,-0.07 -20.75,2.14 -30.2,2.8 c -0.36,-0.49 -0.81,-0.88 -1.35,-1.15 c 0.51,-0.2 0.93,-0.52 1.28,-0.96 c 0.93,-0.14 1.87,-0.17 2.81,-0.09 c 2.98,-1.98 8.61,0.48 12.55,-1.73 c 2.89,0.13 5.72,-0.19 8.51,-0.94 c 5.03,0.05 10.06,-0.03 15.07,-0.24 c -2.13,0.12 -4.23,0.45 -6.31,0.96 c 1.27,0.06 2.49,0.35 3.67,0.86 Z"/></g>
<g><path fill="#3f90f7" d="M 487.02,91.89 c 0.54,2.37 -3.44,1.26 -4.53,1.37 c -3.16,1.12 -4.76,1.11 -8.08,1.15 c -1.73,1.44 -3.98,0.54 -6.05,0.82 c -1,0.29 -1.99,0.63 -2.97,0.99 c -2.99,-0.04 -4.24,-0.17 -7.01,0.98 c -1.63,-0.05 -3.26,0 -4.88,0.14 c -4.36,0.72 -8.74,1.35 -13.12,1.89 c -1.04,0.09 -1.49,-0.38 -1.37,-1.42 c 0.78,0.05 1.55,0.02 2.32,-0.08 c 3.49,-2.08 11.3,-2.56 15.49,-3.04 c 9.45,-0.66 20.93,-2.87 30.2,-2.8 Z"/></g>
<g><path fill="#1868ed" stroke="#1868ed" stroke-width="0.5" d="M 667.93,118.73 c 3.47,0.27 8.7,3.35 12.08,4.6 c -0.05,0.62 0.19,1.1 0.73,1.42 c 3.85,1.85 7.76,3.57 11.72,5.18 c 6.9,3.46 13.79,6.9 20.69,10.31 c 1.61,0.38 4.21,2.17 5.83,1.67 c 6.91,3.91 13.67,8.07 20.29,12.48 c -0.92,0.38 -1.85,0.4 -2.79,0.06 c -1.31,1.05 -0.9,1.38 -2.55,1.72 c 0.35,2.74 7.4,6.77 10.29,6.56 c 0.27,-0.63 0.34,-1.29 0.19,-2 c 1.04,-0.29 2.02,-0.72 2.95,-1.28 c 17.65,11.5 34.28,24.33 49.88,38.5 c 0.13,1.36 2.01,2.46 2.76,3.55 c 11,8.95 19.57,19.56 29.4,29.6 c 1.42,1.29 2.05,4.08 4.33,3.9 c 4.56,5.55 9.11,11.12 13.63,16.7 c -0.85,4.64 -0.92,6.69 -5.05,9.14 c 0.71,6.8 6.59,8.22 -2.93,16.89 c 0.08,0.7 0.41,1.27 0.99,1.73 c -3.09,5.79 -6.14,10.58 -13.87,7.14 c -2.73,8.03 -13.82,19.13 -14.49,2.88 c -0.08,-0.36 -0.26,-0.66 -0.54,-0.88 c -1.88,7.71 2.79,13.6 -7.85,21.56 c -3.21,4.88 -17.87,2.15 -20.83,1.31 c -0.18,0.08 -0.35,0.17 -0.52,0.25 c 0.28,1.2 0.38,2.41 0.3,3.62 c 0.64,0.45 1.36,0.72 2.16,0.82 c 2.92,3.96 -6.92,3.16 -8.57,7.44 c -0.8,1.34 -1.67,2.6 -2.62,3.78 c -0.54,-2.73 -8.25,-0.81 -10.75,-2.63 c -0.31,-0.83 -0.52,-1.69 -0.65,-2.58 c -1.9,-0.5 -5.78,-3.88 -7.62,-3.22 c -0.34,-0.01 -0.43,-0.15 -0.27,-0.43 c 0.98,1.82 1.48,4.12 1.14,6.03 c -6.91,0.08 -16.29,-1.56 -21.3,4.38 c -5.18,2.81 -6.81,2.7 -12.51,1.62 c -0.61,0.05 0.17,6.73 -2.04,8.58 c -4.66,2.29 -7.89,9.74 -12.02,10.52 c 0.63,1.8 1.05,3.65 1.28,5.54 c -37.82,-43.47 -84.52,-71.92 -140.92,-84.44 c -19.68,-4.44 -44.18,-5.76 -64.38,-4.8 c -7.55,0.65 -15.07,1.5 -22.57,2.54 c -0.64,0.1 -1.27,0.2 -1.9,0.31 c -0.8,-2.08 -8.25,-0.08 -9.7,-1.33 c 2.82,-3.38 5.77,-6.66 8.86,-9.85 c 1.62,-2.44 4.48,-5.97 5.32,-8.69 c 0.93,-0.8 1.84,-1.64 2.72,-2.5 c 2.74,-1.63 13.79,0.92 14.41,-2.36 c -0.05,-0.03 -0.11,-0.05 -0.17,-0.07 c 0.14,-1.34 3.76,-1.9 4.9,-2.6 c 1.59,-0.65 5.24,1.29 6.24,0.1 c -0.76,-0.27 -1.34,-0.73 -1.75,-1.4 c -0.77,-2.31 -1.66,-4.56 -2.68,-6.75 c -0.17,-0.49 0,-0.83 0.49,-1 c 6.2,-0.47 12.45,-1.47 18.41,0.85 c 2.51,1.11 2.67,2 3.36,4.43 c 2.21,-1.57 4.54,-2.98 6.97,-4.21 c 6.21,-3.09 15.96,-2.26 17.28,-10.89 c -0.62,-0.28 -1.24,-0.57 -1.87,-0.85 c -1.7,-1.4 -1.74,-3.74 -4.27,-3.8 c 1.34,0.03 2.68,0.03 4.02,0 c 1,0.86 2.17,1.39 3.48,1.6 c 2.25,1.98 4.47,3.98 6.68,6.01 c 0.13,0.57 0.33,1.11 0.6,1.61 c 1.06,0.1 2.07,-0.05 3.03,-0.44 c 1.66,-2.57 4.4,-3.44 7.02,-4.83 c 1.77,-1.09 5.37,0.83 6.2,-0.29 c -0.75,-2.03 -0.81,-4.07 -0.16,-6.12 c 1.12,1.71 2.33,1.58 3.63,2.49 c 0.52,-3.22 -0.86,-3.36 -1.68,-5.88 c -0.37,0.08 -0.55,-0.1 -0.53,-0.55 c 1.79,-2.5 4.19,-4.14 7.2,-4.91 c 1.42,-0.22 9.56,-2.24 10.3,-1.03 c 1.25,-0.11 2.49,-0.12 3.73,-0.05 c 0.36,-0.62 0.52,-1.31 0.48,-2.06 c 2.12,-2.34 2.03,-5.7 2.98,-8.53 c 0,0.45 -0.21,0.54 -0.63,0.25 c -0.3,-0.4 -0.6,-0.81 -0.88,-1.23 c 0.95,0.09 1.86,0.3 2.75,0.62 c 1.84,0.23 3.47,-0.64 4.72,1.11 c 0.4,-0.66 0.53,-1.38 0.38,-2.16 c -1.11,-3.19 -1,-6.32 0.32,-9.38 c 1.61,-3.18 4.56,-3.63 7.49,-4.89 c -2,1.48 -2.39,3.29 -1.15,5.43 c 0.81,-0.87 1.61,-1.77 2.38,-2.69 c 2.83,-1.76 4.8,1.37 5.62,3.65 c 4.64,-3.05 5.81,-10.59 7.04,-15.58 c 0.35,-0.52 0.7,-1.05 1.04,-1.58 c -5.14,-1.96 -8.57,1.47 -11.11,5.27 c -0.84,-2.47 -1.54,-3 -3.83,-4.38 c -5.73,-6.39 3.95,-12.38 7.95,-16.31 c 4.42,-4.73 4.78,-10.31 5.65,-16.39 c 1.36,-2.08 1.72,1.56 2.16,2.04 c 1.09,-0.4 2.05,-1.01 2.9,-1.8 c 6.23,-7.93 11.45,-14.46 21.98,-16.05 c 1.89,-1.45 -1.22,-1.84 -1.92,-2.32 c 0.26,-0.35 0.62,-0.54 1.07,-0.59 c 2.66,0.36 6.86,1.62 9.47,0.81 Z M 501.24,264.61 c 1.74,0.33 3.49,0.54 5.25,0.63 c 8.02,0.17 16.03,0.09 24.04,-0.23 c 0.72,0.01 1.4,-0.13 2.04,-0.44 c -1.33,-0.32 -2.68,-0.51 -4.05,-0.57 c -7.67,-0.36 -15.34,-0.39 -23,-0.06 c -1.48,-0.01 -2.9,0.21 -4.28,0.67 Z M 289.34,615.12 c 4.6,9.05 9.35,18.03 14.23,26.93 c 1.54,1.47 6.44,11.38 8.36,10.89 c 4.82,8.05 12.03,15.99 18.12,23.22 c -0.3,1.05 -0.03,1.96 0.81,2.7 c 5.65,5.95 11.44,11.76 17.37,17.43 c 0.39,0.39 0.67,0.86 0.84,1.39 c -3.13,2.41 -3.92,2.41 -7.39,0.87 c -0.12,0.1 -0.24,0.19 -0.36,0.28 c 0.16,0.86 0.67,1.37 1.54,1.52 c -1.46,5.02 -5.89,6.37 -10.33,4.19 c -1.92,1.99 -15.04,11.15 -17.76,10.44 c -0.3,0.04 -0.5,0.19 -0.58,0.46 c 2.27,-1.05 9.34,6.79 9.93,6.44 c -1.14,0.15 -2.18,-0.08 -3.13,-0.69 c -2.58,2.59 -3.09,12.47 -7.25,10.52 c -0.97,-1.18 0.67,-1.89 0.52,-3.13 c -4,-1.98 -5.05,-6.4 -6.75,-10.13 c 0.78,-0.43 1.31,-1.08 1.58,-1.94 c -0.45,-0.5 -0.75,-1.09 -0.91,-1.77 c -4.18,4.08 -12.33,2.49 -17.61,3.81 c 0.91,0.67 4.35,2.25 4,7.89 c 0.66,-0.21 1.3,-0.47 1.93,-0.77 c 1.79,1.29 4.24,0.26 5.24,2.54 c -5.11,8.91 2.7,10.58 -11.54,14.65 c -5.39,2 -5.34,7 -9.48,10.2 c -7.21,-0.05 -18.93,5.32 -24.17,10.44 c -1.5,-1.7 0.57,-3.23 1,-4.7 c -1.37,0.98 -14.68,-7.71 -13.54,-6.76 c -0.15,1.75 -0.14,2.41 1.3,2.69 c -0.3,2.03 -10.96,-0.26 -10.96,-3.02 c 0.62,-0.54 1.02,-1.21 1.19,-1.99 c -0.97,-1.28 -3.01,0.83 -4.19,-0.43 c 0.08,-1.61 -7.68,-16.52 -8.56,-16.82 c -4.29,-1.54 -7.08,-0.34 -8.44,-4.89 c 0.66,1 -0.74,9.9 -1.06,10.07 c -6.99,1.23 -26.37,8.85 -29.78,15.79 c -0.33,-0.28 -0.67,-0.55 -1.01,-0.81 c -0.2,1.53 -0.83,2.84 -1.9,3.93 c -10.94,-15.11 -21.36,-30.96 -30.07,-47.47 c 0.25,-0.52 0.39,-1.08 0.43,-1.66 c -0.37,-1 -2.5,-8.54 0.57,-6.8 c 0.36,-0.49 0.63,-1.04 0.79,-1.66 c 2.42,-2.32 6.6,-3.31 9.52,-4.94 c 4.54,-2.91 9.31,-5.35 14.32,-7.32 c 0.98,0.62 1.98,-0.52 2.74,-1.19 c -0.15,-0.66 -0.33,-1.3 -0.56,-1.94 c 0.59,-0.72 1.34,-0.96 2.26,-0.73 c 2.4,2.05 5.29,6.13 8.87,5.79 c 0.29,-0.77 0.2,-1.53 -0.28,-2.27 c 0.83,-3.47 8.59,-4.24 11.51,-4.3 c 0.42,-0.57 0.96,-0.87 1.63,-0.91 c 0.71,0.98 1.68,1.45 2.93,1.39 c 4.89,0.53 7.36,-5.21 4.15,-8.02 c 2.32,-1.41 1.98,-3.58 -0.03,-5.03 c 0.48,-0.95 8.49,-0.33 10.11,-1.17 c 0.38,0.22 0.52,0.54 0.4,0.98 c -0.83,1.65 -5.12,2.86 -6.84,2.81 c 2.33,0.15 4.65,0.4 6.97,0.73 c 0.6,-0.38 1.1,-0.86 1.51,-1.46 c 0.36,0.39 0.71,0.79 1.03,1.22 c 0.9,-0.44 1.59,-1.11 2.07,-2.01 c -2.22,-1.41 -2.03,-2.38 0.56,-2.9 c 1.44,-1.41 0.43,-3.76 -1.46,-3.89 c -1.1,-0.69 2.36,-8.61 3.21,-9.8 c 0.72,0.22 1.34,0.62 1.86,1.22 c 1.94,0.68 3.86,1.42 5.77,2.21 c 8.37,3.43 9.95,-6.55 12.98,-11.84 c 1.01,-0.74 2.01,-1.49 3.01,-2.27 c 0.37,0.29 0.53,0.68 0.5,1.17 c -1.01,3.35 -2.79,5.54 -2.51,9.22 c 0.61,-0.82 1.28,-1.58 2.01,-2.28 c 0.26,0.32 0.48,0.67 0.66,1.03 c 6.32,-0.81 6.64,-5.23 2.15,-8.97 c 0.7,-0.29 1.3,-0.7 1.79,-1.23 c 0.49,-4.52 1.04,-9.04 1.64,-13.55 c 0.56,-0.56 1.23,-1.02 1.98,-1.38 c -0.04,-0.64 -0.2,-1.26 -0.48,-1.85 c 1.42,-1.54 12.55,3.28 17.32,-0.46 c -0.36,0.16 -0.7,0.13 -0.99,-0.08 c -0.05,-1.51 2.24,-1.39 3.02,-0.61 c 7.24,-1.02 8.35,-3.27 11.69,-9.22 Z"/></g>
<g><path fill="#397fef" d="M 501.24,264.61 c 1.38,-0.46 2.8,-0.68 4.28,-0.67 c 7.66,-0.33 15.33,-0.3 23,0.06 c 1.37,0.06 2.72,0.25 4.05,0.57 c -0.64,0.31 -1.32,0.45 -2.04,0.44 c -8.01,0.32 -16.02,0.4 -24.04,0.23 c -1.76,-0.09 -3.51,-0.3 -5.25,-0.63 Z"/></g>
<g><path fill="#9abff7" d="M 797.24,197.95 c 1.49,0.05 2.69,0.69 3.62,1.9 c 5.08,4.86 10.11,9.76 15.09,14.7 c 5.76,6.18 11.5,12.38 17.22,18.59 c 0.48,0.54 0.67,1.16 0.56,1.86 c -2.28,0.18 -2.91,-2.61 -4.33,-3.9 c -9.83,-10.04 -18.4,-20.65 -29.4,-29.6 c -0.75,-1.09 -2.63,-2.19 -2.76,-3.55 Z"/></g>
<g><path fill="#1672f4" stroke="#1672f4" stroke-width="0.5" d="M 493.05,91.4 c 12.27,-0.76 24.55,-0.85 36.84,-0.29 c 0.2,0.77 0.72,1.12 1.55,1.05 c 7.03,0.03 14.06,0.24 21.07,0.64 c 3.15,0.22 6.22,0.81 9.21,1.75 c 2.21,-0.3 4.35,-0.03 6.42,0.82 c 2.37,-0.07 5.48,-0.06 7.54,1.23 c 2.41,-0.29 4.77,-0.03 7.07,0.78 c 7.56,-0.01 16.19,2.33 23.65,3.77 c 3.13,1 16.17,4.76 18.56,3.55 c 10.74,2.62 34.09,9.41 42.97,14.03 c -2.61,0.81 -6.81,-0.45 -9.47,-0.81 c -0.45,0.05 -0.81,0.24 -1.07,0.59 c 0.7,0.48 3.81,0.87 1.92,2.32 c -10.53,1.59 -15.75,8.12 -21.98,16.05 c -0.85,0.79 -1.81,1.4 -2.9,1.8 c -0.44,-0.48 -0.8,-4.12 -2.16,-2.04 c -0.87,6.08 -1.23,11.66 -5.65,16.39 c -4,3.93 -13.68,9.92 -7.95,16.31 c 2.29,1.38 2.99,1.91 3.83,4.38 c 2.54,-3.8 5.97,-7.23 11.11,-5.27 c -0.34,0.53 -0.69,1.06 -1.04,1.58 c -1.23,4.99 -2.4,12.53 -7.04,15.58 c -0.82,-2.28 -2.79,-5.41 -5.62,-3.65 c -0.77,0.92 -1.57,1.82 -2.38,2.69 c -1.24,-2.14 -0.85,-3.95 1.15,-5.43 c -2.93,1.26 -5.88,1.71 -7.49,4.89 c -1.32,3.06 -1.43,6.19 -0.32,9.38 c 0.15,0.78 0.02,1.5 -0.38,2.16 c -1.25,-1.75 -2.88,-0.88 -4.72,-1.11 c -0.89,-0.32 -1.8,-0.53 -2.75,-0.62 c 0.28,0.42 0.58,0.83 0.88,1.23 c 0.42,0.29 0.63,0.2 0.63,-0.25 c -0.95,2.83 -0.86,6.19 -2.98,8.53 c 0.04,0.75 -0.12,1.44 -0.48,2.06 c -1.24,-0.07 -2.48,-0.06 -3.73,0.05 c -0.74,-1.21 -8.88,0.81 -10.3,1.03 c -3.01,0.77 -5.41,2.41 -7.2,4.91 c -0.02,0.45 0.16,0.63 0.53,0.55 c 0.82,2.52 2.2,2.66 1.68,5.88 c -1.3,-0.91 -2.51,-0.78 -3.63,-2.49 c -0.65,2.05 -0.59,4.09 0.16,6.12 c -0.83,1.12 -4.43,-0.8 -6.2,0.29 c -2.62,1.39 -5.36,2.26 -7.02,4.83 c -0.96,0.39 -1.97,0.54 -3.03,0.44 c -0.27,-0.5 -0.47,-1.04 -0.6,-1.61 c -2.21,-2.03 -4.43,-4.03 -6.68,-6.01 c -1.31,-0.21 -2.48,-0.74 -3.48,-1.6 c -1.34,0.03 -2.68,0.03 -4.02,0 c 2.53,0.06 2.57,2.4 4.27,3.8 c 0.63,0.28 1.25,0.57 1.87,0.85 c -1.32,8.63 -11.07,7.8 -17.28,10.89 c -2.43,1.23 -4.76,2.64 -6.97,4.21 c -0.69,-2.43 -0.85,-3.32 -3.36,-4.43 c -5.96,-2.32 -12.21,-1.32 -18.41,-0.85 c -0.49,0.17 -0.66,0.51 -0.49,1 c 1.02,2.19 1.91,4.44 2.68,6.75 c 0.41,0.67 0.99,1.13 1.75,1.4 c -1,1.19 -4.65,-0.75 -6.24,-0.1 c -1.14,0.7 -4.76,1.26 -4.9,2.6 c 0.06,0.02 0.12,0.04 0.17,0.07 c -0.62,3.28 -11.67,0.73 -14.41,2.36 c -0.88,0.86 -1.79,1.7 -2.72,2.5 c -0.84,2.72 -3.7,6.25 -5.32,8.69 c -3.09,3.19 -6.04,6.47 -8.86,9.85 c 1.45,1.25 8.9,-0.75 9.7,1.33 c -50.92,8.46 -95.28,30.24 -133.1,65.34 c -1.83,0.05 -14.69,14.23 -16.9,16.34 c -1.36,2.92 -12.1,12.48 -11.07,15.28 c -3.61,4.58 -6.99,9.33 -10.14,14.26 c -1.99,-0.07 -12.1,20.1 -13.96,23.01 c -3.08,4.2 -5.22,10.74 -7.69,15.52 c -0.5,1.98 -5.69,13.39 -5.01,14.37 c 0.14,-0.01 0.29,-0.02 0.43,-0.03 c -4.75,15.45 -9.51,30.91 -11.31,47.08 c -0.82,-0.16 -1.42,0.11 -1.79,0.81 c -0.5,5.68 -1.08,11.36 -1.75,17.04 c -0.06,9.15 -0.11,18.3 -0.15,27.44 c 0.46,0.63 1.04,1.17 1.73,1.6 c -0.04,0.45 -0.08,0.91 -0.12,1.36 c -0.23,1.08 -0.28,2.18 -0.13,3.28 c -0.25,5.01 4.85,39.63 6.95,40.36 c 2.71,10.41 8.08,28.4 12.95,37.38 c -0.73,2.37 0.7,3.79 1.37,5.88 c -3.34,5.95 -4.45,8.2 -11.69,9.22 c -0.78,-0.78 -3.07,-0.9 -3.02,0.61 c 0.29,0.21 0.63,0.24 0.99,0.08 c -4.77,3.74 -15.9,-1.08 -17.32,0.46 c 0.28,0.59 0.44,1.21 0.48,1.85 c -0.75,0.36 -1.42,0.82 -1.98,1.38 c -0.6,4.51 -1.15,9.03 -1.64,13.55 c -0.49,0.53 -1.09,0.94 -1.79,1.23 c 4.49,3.74 4.17,8.16 -2.15,8.97 c -0.18,-0.36 -0.4,-0.71 -0.66,-1.03 c -0.73,0.7 -1.4,1.46 -2.01,2.28 c -0.28,-3.68 1.5,-5.87 2.51,-9.22 c 0.03,-0.49 -0.13,-0.88 -0.5,-1.17 c -1,0.78 -2,1.53 -3.01,2.27 c -3.03,5.29 -4.61,15.27 -12.98,11.84 c -1.91,-0.79 -3.83,-1.53 -5.77,-2.21 c -0.52,-0.6 -1.14,-1 -1.86,-1.22 c -0.85,1.19 -4.31,9.11 -3.21,9.8 c 1.89,0.13 2.9,2.48 1.46,3.89 c -2.59,0.52 -2.78,1.49 -0.56,2.9 c -0.48,0.9 -1.17,1.57 -2.07,2.01 c -0.32,-0.43 -0.67,-0.83 -1.03,-1.22 c -0.41,0.6 -0.91,1.08 -1.51,1.46 c -2.32,-0.33 -4.64,-0.58 -6.97,-0.73 c 1.72,0.05 6.01,-1.16 6.84,-2.81 c 0.12,-0.44 -0.02,-0.76 -0.4,-0.98 c -1.62,0.84 -9.63,0.22 -10.11,1.17 c 2.01,1.45 2.35,3.62 0.03,5.03 c 3.21,2.81 0.74,8.55 -4.15,8.02 c -1.25,0.06 -2.22,-0.41 -2.93,-1.39 c -0.67,0.04 -1.21,0.34 -1.63,0.91 c -2.92,0.06 -10.68,0.83 -11.51,4.3 c 0.48,0.74 0.57,1.5 0.28,2.27 c -3.58,0.34 -6.47,-3.74 -8.87,-5.79 c -0.92,-0.23 -1.67,0.01 -2.26,0.73 c 0.23,0.64 0.41,1.28 0.56,1.94 c -0.76,0.67 -1.76,1.81 -2.74,1.19 c -5.01,1.97 -9.78,4.41 -14.32,7.32 c -2.92,1.63 -7.1,2.62 -9.52,4.94 c -0.16,0.62 -0.43,1.17 -0.79,1.66 c -3.07,-1.74 -0.94,5.8 -0.57,6.8 c -0.04,0.58 -0.18,1.14 -0.43,1.66 c -21.65,-40.74 -36.61,-82.54 -44.97,-127.94 c 0.55,0.04 0.92,-0.21 1.11,-0.73 c -0.16,-2.2 -0.29,-4.41 -0.39,-6.62 c -0.74,-1.64 -1,-3.35 -0.79,-5.13 c -1.41,-2.52 -1.15,-4.54 -1.25,-7.28 c -0.88,-3.19 -1.42,-6.43 -1.62,-9.73 c -0.11,-0.33 -0.33,-0.53 -0.67,-0.59 c -0.71,-3.92 -1.23,-7.86 -1.55,-11.84 c -5.53,-86.25 14.56,-170.56 57.92,-245.24 c 0.89,0.08 1.55,-0.28 1.97,-1.08 c 5.75,-9.51 12.23,-18.51 18.28,-27.8 c 0.39,-0.58 0.55,-1.22 0.46,-1.91 c 2.68,-3.01 4.91,-6.31 6.7,-9.92 c 8.35,-9.87 16.83,-19.64 25.44,-29.3 c 0.68,0.03 1.27,-0.19 1.78,-0.65 c 6.94,-7.36 14.13,-14.45 21.58,-21.28 c 0.44,-0.51 0.59,-1.09 0.45,-1.75 c 0.97,-0.6 1.89,-1.27 2.76,-2 c 9.18,-9.73 20.59,-17.35 30.48,-26.3 c 1.04,0.32 2,0.16 2.88,-0.49 c 8.27,-6.61 17.31,-11.84 25.96,-17.85 c 1.08,-0.78 3.17,-0.8 2.94,-2.61 c 2.3,-1.42 4.64,-2.77 7.04,-4.04 c 1.55,0.23 10.79,-5.5 12.96,-6.57 c 3.28,-1.97 16.15,-7.32 17.93,-9.45 c 32.4,-15.99 65.76,-25.99 101.08,-33.18 c -0.12,1.04 0.33,1.51 1.37,1.42 c 4.38,-0.54 8.76,-1.17 13.12,-1.89 c 1.62,-0.14 3.25,-0.19 4.88,-0.14 c 2.77,-1.15 4.02,-1.02 7.01,-0.98 c 0.98,-0.36 1.97,-0.7 2.97,-0.99 c 2.07,-0.28 4.32,0.62 6.05,-0.82 c 3.32,-0.04 4.92,-0.03 8.08,-1.15 c 1.09,-0.11 5.07,1 4.53,-1.37 c 2.03,0.1 4.04,-0.06 6.03,-0.49 Z"/></g>
<g><path fill="#a6c7f8" d="M 287.97,609.24 c 0.49,0.26 0.86,0.65 1.1,1.16 c 4.2,8.7 8.63,17.3 13.29,25.78 c 1.92,1.93 2.51,4.75 4.03,6.99 c 1.04,2.14 6.14,7.54 5.54,9.77 c -1.92,0.49 -6.82,-9.42 -8.36,-10.89 c -4.88,-8.9 -9.63,-17.88 -14.23,-26.93 c -0.67,-2.09 -2.1,-3.51 -1.37,-5.88 Z"/></g>
<g><path fill="#9fc5fa" d="M 345.93,334.14 c 0.53,2.13 -10.02,10.38 -11.47,12.82 c -5.14,5.88 -10.15,11.88 -15.02,17.98 c -0.37,0.5 -0.86,0.77 -1.48,0.82 c -1.03,-2.8 9.71,-12.36 11.07,-15.28 c 2.21,-2.11 15.07,-16.29 16.9,-16.34 Z"/></g>
<g><path fill="#1855dd" stroke="#1855dd" stroke-width="0.5" d="M 914.3,377.92 c 1.06,3.27 2.05,6.56 2.97,9.87 c 1.85,6.69 3.65,13.4 5.41,20.12 c 2.78,11.32 5.34,22.68 7.68,34.1 c 0.64,2.77 0.45,7.78 1.59,10.18 c -0.29,0.73 -0.47,1.49 -0.54,2.27 c 1.76,12.08 2.59,24.3 2.82,36.53 c -0.34,3.88 -0.58,7.74 -0.7,11.61 c -1.62,-4.67 -1.25,-10.37 -0.95,-15.31 c 0.06,-0.62 -0.18,-1.04 -0.72,-1.25 c -0.53,0.34 -0.81,0.83 -0.85,1.46 c -0.34,3.03 0.49,25.4 -0.49,26.16 c -1.34,-1.53 -2.83,-2.91 -4.48,-4.14 c -0.82,-0.42 -1.67,-0.73 -2.57,-0.93 c -0.76,0.26 -1.47,0.23 -2.15,-0.09 c 1.88,-2.53 1.12,-3.27 0.12,-6.16 c -1.46,0.29 -10.22,-2.82 -12.03,-3.41 c -0.61,-0.59 -1.25,-1.13 -1.93,-1.62 c -1.33,1.05 1.02,3.36 2.04,3.91 c 1.86,2.99 1.06,3.61 -0.39,6.14 c -1.84,0.39 -3.73,0.77 -5.66,1.14 c -6.34,-0.31 -21.67,-1.6 -20.4,8.56 c -0.88,1.24 -1.06,2.59 -0.53,4.06 c 0.34,-1.6 2.39,-0.22 3.4,-1.59 c 0.03,-0.95 0.16,-1.87 0.38,-2.78 c 2.27,-1.18 0.84,-4.87 3.86,-3.63 c 1.02,-0.22 2.13,-0.39 3.35,-0.51 c 1.69,-2.22 2.4,-1.96 2.12,0.78 c -0.41,1.68 -0.92,3.32 -1.54,4.92 c 0.43,0.3 0.9,0.35 1.43,0.12 c 1.88,2 -2.42,8 -4.94,8.61 c -0.4,0.54 -0.77,1.1 -1.13,1.66 c -1.77,-0.79 -1.84,-4.91 -4.31,-3.56 c -0.85,0.63 -1.76,1.14 -2.73,1.53 c 0.18,1.97 -1.02,4.55 1.22,5.51 c -0.09,1.7 1,2.25 1.83,3.53 c -0.63,0.75 -1.34,1.43 -2.14,2.05 c -0.11,0.72 -0.32,1.4 -0.62,2.04 c -1.33,-0.18 -1.6,-0.81 -0.81,-1.88 c -0.22,-0.31 -0.52,-0.47 -0.92,-0.47 c -1.58,0.9 -3.21,1.7 -4.88,2.4 c -1.56,1.79 -0.16,3.05 -0.57,4.76 c -2.3,-0.9 -4.35,0.59 -5.8,2.28 c 0.1,3.76 -5.64,0.98 -4.72,-0.48 c -3.62,-0.8 -0.53,-3.79 -3.46,-5.18 c 0.17,1.67 -1.67,1.49 -0.83,3.2 c -2.57,4.19 0.03,7.62 4.56,7.73 c 0.11,0.85 0.25,1.73 0.42,2.66 c 0.56,1.67 1.73,2.52 3.51,2.56 c 0.79,0.42 0.8,0.86 0.03,1.31 c -6.91,-1.4 -12.04,2.51 -10.41,9.85 c 0.02,0.43 -0.09,0.81 -0.34,1.14 c -0.36,-1.78 -0.69,-3.56 -0.97,-5.34 c -2.65,0.7 -0.87,3.32 -0.72,4.96 c -1.24,0.43 -2.4,1.04 -3.48,1.83 c -0.5,1.38 -1.31,2.55 -2.41,3.51 c -1.82,0.06 -3.6,0.37 -5.34,0.92 c -2.15,-0.3 -4.28,-0.26 -6.41,0.13 c -1.26,-1.17 -2.46,-2.41 -3.59,-3.72 c -1.07,-1.55 -1.8,-3.22 -2.18,-5 c -2.39,-0.01 -1.72,-0.39 -2.92,-1.92 c -0.58,-0.16 -1.14,-0.1 -1.67,0.2 c -0.58,0.53 1.12,3 -2.25,3.17 c -1.92,1.44 1.13,6.45 2.49,7.7 c 4.02,0.16 -0.01,3.45 -0.87,4.44 c -2.22,0.38 -2.27,1.56 -4.88,0.96 c -6.27,-1.27 -12.41,-5.68 -18.14,-0.32 c 0.6,1.66 -1.09,1.65 -2.17,2.14 c -2.35,2.29 -3.47,1.66 -5.81,2.33 c -0.23,6.8 1.94,12.41 -2.58,18.36 c -6.14,6.3 -12.44,9.97 -20.32,13.78 c -4.23,2.85 -2.96,8.26 -3.91,12.61 c -1.08,5.51 -2.12,11.03 -3.1,16.56 c -0.15,1.07 -0.51,2.06 -1.08,2.95 c -0.6,-0.48 -1.17,-0.99 -1.72,-1.53 c -0.38,0.48 -0.65,1.01 -0.83,1.6 c -2.06,-0.69 -3.31,-4.21 -5.45,-4 c -2.82,-4.68 -21.31,-16.68 -17.84,-22.25 c 22.49,-45.57 31.09,-93.14 24.64,-143.73 c 3.7,0.8 1.09,-4.32 2.5,-5.6 c 3.2,1.07 2.63,9.82 2.98,12.26 c 0.28,-0.35 0.42,-0.75 0.42,-1.2 c -1.85,-7.42 3.42,-14.54 9.52,-18.2 c 1.9,-2.22 12.77,-3.73 9.95,-7.73 c 0.54,-0.37 1.13,-0.66 1.79,-0.85 c 3.52,-5.55 8.46,-8.36 13.48,-12.23 c -1.22,0.05 -2.32,-0.28 -3.3,-0.99 c 2.99,-0.99 9.04,-7.42 12.24,-5.81 c 0.28,-0.89 0.51,-1.8 0.69,-2.74 c 2.54,-3.3 6.52,-4.22 10.37,-5 c 0.26,-0.54 0.54,-1.07 0.83,-1.59 c 0.43,0.6 0.59,1.28 0.5,2.04 c 2.54,1.64 4.27,0.37 6.81,-0.29 c 5.73,-5.34 15.44,0.39 17.89,-7.89 c -1.96,-1.41 2.23,-2.07 2.95,-2.76 c 5.18,-0.53 10.26,0 15.24,1.6 c -1.62,-0.63 -3.13,-1.48 -4.51,-2.54 c 0.38,-2.7 0.89,-5.37 1.53,-8.02 c -0.14,-1.49 -0.09,-2.95 0.15,-4.38 c -0.73,-0.42 -1.33,-0.97 -1.81,-1.64 c -1.06,-0.12 -2.09,-0.35 -3.1,-0.69 c 0.59,0.91 -1.97,1.37 -2.79,-0.23 c 0.41,-0.57 0.86,-1.08 1.36,-1.56 c 0.23,-5.49 0.28,-4.75 5.17,-6.68 c -0.14,-1.93 -3.47,-5.58 -5.59,-6.06 c -1.23,-3.34 19.05,-2.2 14.19,3.36 c -0.64,-0.09 -0.97,-0.43 -1.01,-1.03 c -5.53,2.31 -0.93,8.77 0.41,6.94 c 1.86,-3.58 4.79,-5.41 8.8,-5.5 c 2.35,0.31 4.14,0.31 4.81,2.71 c 0.57,-0.34 1.15,-0.67 1.74,-0.98 c 4.5,-0.23 8.05,-2.19 10.62,-5.89 c -2.54,-3.3 -3.78,-9.61 -8.51,-10.19 c 0.14,-0.75 0.55,-1.3 1.23,-1.65 c 1.01,0.55 1.98,1.17 2.88,1.86 c 0.99,-0.72 2.08,-1.23 3.28,-1.53 c 3.08,-0.08 7.27,-3.34 9.78,-0.69 c 0.23,-1.19 0.62,-2.33 1.16,-3.42 c 0.21,-0.01 0.41,-0.02 0.61,-0.03 c 1.32,1.57 1.87,2.42 4.05,2.72 Z"/></g>
<g><path fill="#7193e5" d="M 758.19,646 c 2.14,-0.21 3.39,3.31 5.45,4 c 0.7,2.8 6.42,5.09 5.33,7.74 c -1.85,-0.46 -11.09,-10.44 -10.78,-11.74 Z"/></g>
<g><path fill="#b1c7f4" d="M 931.95,452.19 c 0.74,-0.04 1.14,0.32 1.21,1.08 c 0.37,3.34 -0.12,6.38 1.45,9.45 c -0.25,2.07 0,4.09 0.74,6.04 c -0.2,4.87 1.33,18.29 -0.75,22.21 c -0.12,0.01 -0.24,0.02 -0.37,0.02 c -0.23,-12.23 -1.06,-24.45 -2.82,-36.53 c 0.07,-0.78 0.25,-1.54 0.54,-2.27 Z"/></g>
<g><path fill="#185ee4" stroke="#185ee4" stroke-width="0.5" d="M 847.36,251.7 c 29.43,38.3 51.74,80.37 66.94,126.22 c -2.18,-0.3 -2.73,-1.15 -4.05,-2.72 c -0.2,0.01 -0.4,0.02 -0.61,0.03 c -0.54,1.09 -0.93,2.23 -1.16,3.42 c -2.51,-2.65 -6.7,0.61 -9.78,0.69 c -1.2,0.3 -2.29,0.81 -3.28,1.53 c -0.9,-0.69 -1.87,-1.31 -2.88,-1.86 c -0.68,0.35 -1.09,0.9 -1.23,1.65 c 4.73,0.58 5.97,6.89 8.51,10.19 c -2.57,3.7 -6.12,5.66 -10.62,5.89 c -0.59,0.31 -1.17,0.64 -1.74,0.98 c -0.67,-2.4 -2.46,-2.4 -4.81,-2.71 c -4.01,0.09 -6.94,1.92 -8.8,5.5 c -1.34,1.83 -5.94,-4.63 -0.41,-6.94 c 0.04,0.6 0.37,0.94 1.01,1.03 c 4.86,-5.56 -15.42,-6.7 -14.19,-3.36 c 2.12,0.48 5.45,4.13 5.59,6.06 c -4.89,1.93 -4.94,1.19 -5.17,6.68 c -0.5,0.48 -0.95,0.99 -1.36,1.56 c 0.82,1.6 3.38,1.14 2.79,0.23 c 1.01,0.34 2.04,0.57 3.1,0.69 c 0.48,0.67 1.08,1.22 1.81,1.64 c -0.24,1.43 -0.29,2.89 -0.15,4.38 c -0.64,2.65 -1.15,5.32 -1.53,8.02 c 1.38,1.06 2.89,1.91 4.51,2.54 c -4.98,-1.6 -10.06,-2.13 -15.24,-1.6 c -0.72,0.69 -4.91,1.35 -2.95,2.76 c -2.45,8.28 -12.16,2.55 -17.89,7.89 c -2.54,0.66 -4.27,1.93 -6.81,0.29 c 0.09,-0.76 -0.07,-1.44 -0.5,-2.04 c -0.29,0.52 -0.57,1.05 -0.83,1.59 c -3.85,0.78 -7.83,1.7 -10.37,5 c -0.18,0.94 -0.41,1.85 -0.69,2.74 c -3.2,-1.61 -9.25,4.82 -12.24,5.81 c 0.98,0.71 2.08,1.04 3.3,0.99 c -5.02,3.87 -9.96,6.68 -13.48,12.23 c -0.66,0.19 -1.25,0.48 -1.79,0.85 c 2.82,4 -8.05,5.51 -9.95,7.73 c -6.1,3.66 -11.37,10.78 -9.52,18.2 c 0,0.45 -0.14,0.85 -0.42,1.2 c -0.35,-2.44 0.22,-11.19 -2.98,-12.26 c -1.41,1.28 1.2,6.4 -2.5,5.6 c -6.56,-46.38 -26.56,-88.77 -56.19,-124.83 c -0.23,-1.89 -0.65,-3.74 -1.28,-5.54 c 4.13,-0.78 7.36,-8.23 12.02,-10.52 c 2.21,-1.85 1.43,-8.53 2.04,-8.58 c 5.7,1.08 7.33,1.19 12.51,-1.62 c 5.01,-5.94 14.39,-4.3 21.3,-4.38 c 0.34,-1.91 -0.16,-4.21 -1.14,-6.03 c -0.16,0.28 -0.07,0.42 0.27,0.43 c 1.84,-0.66 5.72,2.72 7.62,3.22 c 0.13,0.89 0.34,1.75 0.65,2.58 c 2.5,1.82 10.21,-0.1 10.75,2.63 c 0.95,-1.18 1.82,-2.44 2.62,-3.78 c 1.65,-4.28 11.49,-3.48 8.57,-7.44 c -0.8,-0.1 -1.52,-0.37 -2.16,-0.82 c 0.08,-1.21 -0.02,-2.42 -0.3,-3.62 c 0.17,-0.08 0.34,-0.17 0.52,-0.25 c 2.96,0.84 17.62,3.57 20.83,-1.31 c 10.64,-7.96 5.97,-13.85 7.85,-21.56 c 0.28,0.22 0.46,0.52 0.54,0.88 c 0.67,16.25 11.76,5.15 14.49,-2.88 c 7.73,3.44 10.78,-1.35 13.87,-7.14 c -0.58,-0.46 -0.91,-1.03 -0.99,-1.73 c 9.52,-8.67 3.64,-10.09 2.93,-16.89 c 4.13,-2.45 4.2,-4.5 5.05,-9.14 Z M 349.07,697.68 c 0.85,0.31 1.72,0.44 2.62,0.39 c 38.47,32.65 78.33,51.63 128.3,59.75 c 18.01,3.06 36.58,3.6 54.82,2.45 c -0.8,0.5 -1.63,1.02 -2.47,1.54 c -4.27,6.9 -10.85,13.26 -19.64,10.21 c -3.17,-1.05 -6.85,-4.2 -10.31,-3.55 c -0.58,-0.55 -1.07,-1.17 -1.47,-1.88 c -1.58,0.68 -5.72,2.04 -3.34,4.3 c 1,-0.01 1.94,0.2 2.8,0.64 c 1.9,6.29 11.83,6.18 5.3,14.72 c -2.71,3 -5.36,6.04 -7.96,9.13 c -2.6,5.58 -6.48,10.42 -7.72,16.53 c 0.15,1.17 0.51,4.29 -0.13,5.15 c -1.01,1.63 -2.2,3.11 -3.57,4.45 c -0.94,0.44 -1.87,0.9 -2.77,1.38 c -0.56,3.98 0.79,4.19 4.21,3.59 c 0.23,-0.69 0.46,-1.4 0.68,-2.11 c 1.39,1.89 4.1,1.88 4.63,4.41 c 0.27,2.07 -0.13,3.99 -1.2,5.78 c -0.02,-0.07 -0.06,-0.13 -0.11,-0.18 c -1.82,1.69 -3.67,3.35 -5.55,4.96 c -0.72,0.03 -1,-0.3 -0.85,-0.97 c 0.93,-0.62 3.46,-1.59 1.79,-2.88 c -2.13,-0.13 -3.22,2.12 -3.03,3.9 c -2.81,7.48 -4.21,8.28 -11.67,10.46 c -0.85,0.51 -1.69,1.03 -2.52,1.57 c -2.72,4.11 -4.04,11.22 -10.14,11.32 c -5,-0.58 -5.93,-3.7 -8.25,-7.46 c -0.07,1.2 -0.42,2.31 -1.05,3.33 c -0.19,-0.83 -0.51,-1.6 -0.93,-2.31 c -1.8,0.31 -1.95,2.61 -1.3,3.97 c 0.47,0.42 0.93,0.84 1.38,1.27 c -1.65,3.29 1.67,6.12 -2.09,10.79 c -0.81,0.46 -1.61,0.92 -2.42,1.38 c 0,0.19 0.01,0.39 0.01,0.58 c 0.19,0.47 3.84,0.73 3.01,0.38 c 3.65,1.93 0.95,4.03 -0.05,6.55 c 0.22,1.16 0.73,2.19 1.53,3.1 c -0.07,0.16 -0.14,0.32 -0.21,0.48 c -1.96,0.61 -0.07,-2.4 -1.3,-3.39 c -4.79,-2.42 -8.85,-9.45 -12.23,-13.7 c -0.55,-0.73 -1.11,-0.75 -1.7,-0.06 c -0.51,6.33 -6.03,13.57 -3.47,19.72 c 0.93,1.99 2.03,3.87 3.3,5.63 c 0.02,0.83 -0.4,1.25 -1.26,1.26 c -0.1,0.8 -0.1,1.61 0.01,2.42 c -2.56,-0.87 -1.32,-1.19 -2.36,-2.9 c -1.14,-0.51 -2.27,-1.06 -3.38,-1.64 c -3.08,-0.8 -6.16,-1.61 -9.24,-2.42 c -2.75,-1.59 -5.52,-3.14 -8.33,-4.63 c -1.5,-0.27 -6.52,-1.51 -6.91,0.75 c -1.1,5.44 -1.85,10.93 -2.24,16.47 c -0.19,1.36 0.23,2.47 1.27,3.31 c -0.93,2.99 -16.73,-3.95 -18.19,-2.17 c 0.74,1.32 -0.58,1.51 -1.52,1.92 c -80.09,-27.87 -151.21,-80.34 -201.25,-148.81 c 1.07,-1.09 1.7,-2.4 1.9,-3.93 c 0.34,0.26 0.68,0.53 1.01,0.81 c 3.41,-6.94 22.79,-14.56 29.78,-15.79 c 0.32,-0.17 1.72,-9.07 1.06,-10.07 c 1.36,4.55 4.15,3.35 8.44,4.89 c 0.88,0.3 8.64,15.21 8.56,16.82 c 1.18,1.26 3.22,-0.85 4.19,0.43 c -0.17,0.78 -0.57,1.45 -1.19,1.99 c 0,2.76 10.66,5.05 10.96,3.02 c -1.44,-0.28 -1.45,-0.94 -1.3,-2.69 c -1.14,-0.95 12.17,7.74 13.54,6.76 c -0.43,1.47 -2.5,3 -1,4.7 c 5.24,-5.12 16.96,-10.49 24.17,-10.44 c 4.14,-3.2 4.09,-8.2 9.48,-10.2 c 14.24,-4.07 6.43,-5.74 11.54,-14.65 c -1,-2.28 -3.45,-1.25 -5.24,-2.54 c -0.63,0.3 -1.27,0.56 -1.93,0.77 c 0.35,-5.64 -3.09,-7.22 -4,-7.89 c 5.28,-1.32 13.43,0.27 17.61,-3.81 c 0.16,0.68 0.46,1.27 0.91,1.77 c -0.27,0.86 -0.8,1.51 -1.58,1.94 c 1.7,3.73 2.75,8.15 6.75,10.13 c 0.15,1.24 -1.49,1.95 -0.52,3.13 c 4.16,1.95 4.67,-7.93 7.25,-10.52 c 0.95,0.61 1.99,0.84 3.13,0.69 c -0.59,0.35 -7.66,-7.49 -9.93,-6.44 c 0.08,-0.27 0.28,-0.42 0.58,-0.46 c 2.72,0.71 15.84,-8.45 17.76,-10.44 c 4.44,2.18 8.87,0.83 10.33,-4.19 c -0.87,-0.15 -1.38,-0.66 -1.54,-1.52 c 0.12,-0.09 0.24,-0.18 0.36,-0.28 c 3.47,1.54 4.26,1.54 7.39,-0.87 Z"/></g>
<g><path fill="#184fd7" stroke="#184fd7" stroke-width="0.5" d="M 934.23,490.99 c 0.13,0 0.25,-0.01 0.37,-0.02 c 4.71,91.25 -26.68,179.51 -78.34,253.79 c -1.15,2.08 -2.59,2.31 -4.32,0.72 c -19.55,-20.95 -39.17,-41.84 -58.85,-62.66 c 0.18,-1.06 -0.14,-1.96 -0.95,-2.69 c -6.82,-6.77 -13.53,-13.62 -20.16,-20.58 c -0.47,-0.4 -1.01,-0.58 -1.63,-0.52 c -0.3,-0.6 -0.76,-1.03 -1.38,-1.29 c 1.09,-2.65 -4.63,-4.94 -5.33,-7.74 c 0.18,-0.59 0.45,-1.12 0.83,-1.6 c 0.55,0.54 1.12,1.05 1.72,1.53 c 0.57,-0.89 0.93,-1.88 1.08,-2.95 c 0.98,-5.53 2.02,-11.05 3.1,-16.56 c 0.95,-4.35 -0.32,-9.76 3.91,-12.61 c 7.88,-3.81 14.18,-7.48 20.32,-13.78 c 4.52,-5.95 2.35,-11.56 2.58,-18.36 c 2.34,-0.67 3.46,-0.04 5.81,-2.33 c 1.08,-0.49 2.77,-0.48 2.17,-2.14 c 5.73,-5.36 11.87,-0.95 18.14,0.32 c 2.61,0.6 2.66,-0.58 4.88,-0.96 c 0.86,-0.99 4.89,-4.28 0.87,-4.44 c -1.36,-1.25 -4.41,-6.26 -2.49,-7.7 c 3.37,-0.17 1.67,-2.64 2.25,-3.17 c 0.53,-0.3 1.09,-0.36 1.67,-0.2 c 1.2,1.53 0.53,1.91 2.92,1.92 c 0.38,1.78 1.11,3.45 2.18,5 c 1.13,1.31 2.33,2.55 3.59,3.72 c 2.13,-0.39 4.26,-0.43 6.41,-0.13 c 1.74,-0.55 3.52,-0.86 5.34,-0.92 c 1.1,-0.96 1.91,-2.13 2.41,-3.51 c 1.08,-0.79 2.24,-1.4 3.48,-1.83 c -0.15,-1.64 -1.93,-4.26 0.72,-4.96 c 0.28,1.78 0.61,3.56 0.97,5.34 c 0.25,-0.33 0.36,-0.71 0.34,-1.14 c -1.63,-7.34 3.5,-11.25 10.41,-9.85 c 0.77,-0.45 0.76,-0.89 -0.03,-1.31 c -1.78,-0.04 -2.95,-0.89 -3.51,-2.56 c -0.17,-0.93 -0.31,-1.81 -0.42,-2.66 c -4.53,-0.11 -7.13,-3.54 -4.56,-7.73 c -0.84,-1.71 1,-1.53 0.83,-3.2 c 2.93,1.39 -0.16,4.38 3.46,5.18 c -0.92,1.46 4.82,4.24 4.72,0.48 c 1.45,-1.69 3.5,-3.18 5.8,-2.28 c 0.41,-1.71 -0.99,-2.97 0.57,-4.76 c 1.67,-0.7 3.3,-1.5 4.88,-2.4 c 0.4,0 0.7,0.16 0.92,0.47 c -0.79,1.07 -0.52,1.7 0.81,1.88 c 0.3,-0.64 0.51,-1.32 0.62,-2.04 c 0.8,-0.62 1.51,-1.3 2.14,-2.05 c -0.83,-1.28 -1.92,-1.83 -1.83,-3.53 c -2.24,-0.96 -1.04,-3.54 -1.22,-5.51 c 0.97,-0.39 1.88,-0.9 2.73,-1.53 c 2.47,-1.35 2.54,2.77 4.31,3.56 c 0.36,-0.56 0.73,-1.12 1.13,-1.66 c 2.52,-0.61 6.82,-6.61 4.94,-8.61 c -0.53,0.23 -1,0.18 -1.43,-0.12 c 0.62,-1.6 1.13,-3.24 1.54,-4.92 c 0.28,-2.74 -0.43,-3 -2.12,-0.78 c -1.22,0.12 -2.33,0.29 -3.35,0.51 c -3.02,-1.24 -1.59,2.45 -3.86,3.63 c -0.22,0.91 -0.35,1.83 -0.38,2.78 c -1.01,1.37 -3.06,-0.01 -3.4,1.59 c -0.53,-1.47 -0.35,-2.82 0.53,-4.06 c -1.27,-10.16 14.06,-8.87 20.4,-8.56 c 1.93,-0.37 3.82,-0.75 5.66,-1.14 c 1.45,-2.53 2.25,-3.15 0.39,-6.14 c -1.02,-0.55 -3.37,-2.86 -2.04,-3.91 c 0.68,0.49 1.32,1.03 1.93,1.62 c 1.81,0.59 10.57,3.7 12.03,3.41 c 1,2.89 1.76,3.63 -0.12,6.16 c 0.68,0.32 1.39,0.35 2.15,0.09 c 0.9,0.2 1.75,0.51 2.57,0.93 c 1.65,1.23 3.14,2.61 4.48,4.14 c 0.98,-0.76 0.15,-23.13 0.49,-26.16 c 0.04,-0.63 0.32,-1.12 0.85,-1.46 c 0.54,0.21 0.78,0.63 0.72,1.25 c -0.3,4.94 -0.67,10.64 0.95,15.31 c 0.12,-3.87 0.36,-7.73 0.7,-11.61 Z"/></g>
<g><path fill="#fece62" stroke="#fece62" stroke-width="0.5" d="M 666.02,619.95 c 2.5,2.01 5.03,3.98 7.61,5.91 c 7.78,8.53 15.75,16.9 23.92,25.1 c 1.12,1.14 1.86,3.19 3.49,3.66 c 1.23,0.88 2.31,1.91 3.25,3.09 c -0.16,0.71 -0.3,1.43 -0.42,2.15 c -1.16,-1.23 -3.52,-4.73 -4.71,-1.56 c -2.48,-2.11 -4.98,-4.24 -7.49,-6.37 c -3.51,-2.54 -7.24,-2.96 -11.19,-1.26 c -1.25,-2.15 -2.18,-2 -2.79,0.47 c -4.76,5.53 -11.14,1.72 -17.11,1.42 c -2.62,-0.28 -4.23,0.87 -4.83,3.46 c -1.98,6.93 -1.81,13.38 -5.64,19.79 c -0.62,-0.39 -1.17,-0.88 -1.66,-1.48 c -1.41,3.31 -3.18,6.42 -5.33,9.33 c -0.15,0.7 -0.35,1.37 -0.58,2.03 c -0.36,-1.12 -0.7,-2.23 -1.02,-3.35 c -1.03,0.41 -2.74,2.14 -3.13,3.08 c 0.4,0.39 0.81,0.77 1.22,1.14 c -0.9,0.19 -1.81,0.39 -2.71,0.63 c -4.29,2.3 3.4,5.86 -2.28,5.4 c -4.72,3.33 -9.76,6.09 -15.11,8.3 c -1.68,1.19 -2.62,2.82 -2.82,4.88 c 0.02,4.01 -0.55,7.92 -1.71,11.73 c -2.34,5.37 -4.79,10.68 -7.36,15.94 c -1.37,2.04 -2.81,4 -4.33,5.9 c -9.84,-11.43 -20.97,-21.53 -30.52,-33.23 c -0.29,-2.48 -0.31,-4.95 -0.08,-7.41 c -0.23,-3.25 -3.96,-8.24 -7.51,-6.35 c 0,0.93 -0.27,1.76 -0.81,2.51 c -1.21,-0.34 -2.06,-2.3 -3.49,-1.66 c -15.17,-16.06 -29.23,-33.07 -44.81,-48.78 c -4.43,-4.89 -8.78,-9.86 -13.05,-14.89 c -5.56,-6.06 -0.73,-11.64 -1.29,-13.54 c 3.21,-3.56 7.18,-5.73 11.91,-6.51 c 37.07,-1.03 74.7,-0.53 111.83,-0.46 c 14.45,-0.06 28.6,2.29 40.55,10.93 Z"/></g>
<g><path fill="#fdd36f" stroke="#fdd36f" stroke-width="0.5" d="M 572.77,706.11 c -3.85,-4.42 -7.81,-8.72 -11.89,-12.91 c 1.43,-0.64 2.28,1.32 3.49,1.66 c 0.54,-0.75 0.81,-1.58 0.81,-2.51 c 3.55,-1.89 7.28,3.1 7.51,6.35 c -0.23,2.46 -0.21,4.93 0.08,7.41 Z"/></g>
<g><path fill="#fec655" stroke="#fec655" stroke-width="0.5" d="M 703.87,659.86 c 0.9,0.29 1.5,0.88 1.8,1.76 c -0.38,0.35 -0.79,0.65 -1.24,0.91 c 0.37,0.72 0.4,1.42 0.09,2.1 c -2.17,-1.59 -3.7,-0.64 -5.91,0.57 c -5.11,4.87 -10.38,9.56 -15.82,14.07 c -5.24,6.42 -10.62,12.73 -16.14,18.91 c -3.16,3.41 -9.48,7.38 -11.49,11.48 c -0.09,1.04 -0.31,2.04 -0.65,3 c -1.37,-1.08 0.41,-6.18 -1.81,-5.47 c -2.34,13.6 -11.52,9.24 -17.97,17.08 c -4.95,8.75 -9.52,20.91 -19.57,24.44 c 0.1,1.87 0.25,3.72 0.46,5.55 c -3.29,-3.65 -6.53,-7.35 -9.7,-11.08 c -0.76,-1.36 -1.64,-2.64 -2.63,-3.84 c 1.52,-1.9 2.96,-3.86 4.33,-5.9 c 2.57,-5.26 5.02,-10.57 7.36,-15.94 c 1.16,-3.81 1.73,-7.72 1.71,-11.73 c 0.2,-2.06 1.14,-3.69 2.82,-4.88 c 5.35,-2.21 10.39,-4.97 15.11,-8.3 c 5.68,0.46 -2.01,-3.1 2.28,-5.4 c 0.9,-0.24 1.81,-0.44 2.71,-0.63 c -0.41,-0.37 -0.82,-0.75 -1.22,-1.14 c 0.39,-0.94 2.1,-2.67 3.13,-3.08 c 0.32,1.12 0.66,2.23 1.02,3.35 c 0.23,-0.66 0.43,-1.33 0.58,-2.03 c 2.15,-2.91 3.92,-6.02 5.33,-9.33 c 0.49,0.6 1.04,1.09 1.66,1.48 c 3.83,-6.41 3.66,-12.86 5.64,-19.79 c 0.6,-2.59 2.21,-3.74 4.83,-3.46 c 5.97,0.3 12.35,4.11 17.11,-1.42 c 0.61,-2.47 1.54,-2.62 2.79,-0.47 c 3.95,-1.7 7.68,-1.28 11.19,1.26 c 2.51,2.13 5.01,4.26 7.49,6.37 c 1.19,-3.17 3.55,0.33 4.71,1.56 Z"/></g>
<g><path fill="#1852da" stroke="#1852da" stroke-width="0.5" d="M 549.63,760.39 c 4.35,4.33 8.56,8.78 12.65,13.35 c -1.17,1.99 1.78,3.27 2.45,4.88 c -1.99,0.49 -2.49,-1.19 -4.52,1.05 c -1.4,4.2 -3.78,3.28 -5.92,6.11 c -4.91,0.64 -3.64,0.76 -4.78,5.21 c -0.88,0.71 -1.59,1.54 -2.15,2.5 c 0.76,2.05 -0.73,5.88 -1.52,7.94 c -2.09,2.24 -4.31,4.33 -6.66,6.27 c 0.28,1.53 0.49,3.06 0.63,4.6 c -0.71,2.68 -1.38,5.36 -2.02,8.05 c -0.51,0.8 -1.05,1.57 -1.61,2.33 c 0.53,1.29 1.13,2.57 1.81,3.83 c 0.35,1.81 -0.78,2.4 -0.99,4 c 1.37,3.51 1.1,6.11 0.84,9.81 c -2.63,3.87 -8.02,5.68 -5.21,11.19 c -0.33,1.52 -0.78,2.98 -1.36,4.39 c -2.12,0.44 -0.89,-4.35 -1.24,-5.37 c -0.35,-1.39 -0.69,-1.41 -1.01,-0.08 c 0.37,3.85 -0.76,12.9 0.59,16.01 c -2.96,7.01 3.58,5.33 2.26,9.88 c -0.62,0.75 -1.21,1.52 -1.78,2.31 c 0.4,1.12 0.99,2.16 1.76,3.12 c 0.13,1.88 0.17,3.76 0.13,5.65 c -0.63,1.38 -1.28,2.75 -1.93,4.12 c 0.22,3.48 -0.76,8.86 0.54,11.98 c -0.07,1.38 -2.93,1.56 -3.64,2.95 c -0.78,1.41 -1.65,2.75 -2.6,4.03 c 0.5,0.72 1,1.44 1.53,2.16 c 0.62,5.28 1.5,10.24 8.43,8.65 c 1.44,0.5 2.89,0.91 4.34,1.23 c -1.05,1.13 -16.86,0.07 -20.14,1.39 c -2.53,0.31 -9.25,-0.48 -11.17,0.59 c 0.23,0.43 0.59,0.7 1.08,0.8 c 10.69,0.1 21.38,0.07 32.07,-0.08 c 1.28,0.05 2.42,0.46 3.43,1.25 c -24.51,1.58 -48.33,0.57 -72.77,-1.4 c -0.51,-1.4 -20.5,-3 -23.43,-3.55 c -4.19,-0.87 -30.84,-7.12 -32.77,-6.23 c -11.14,-2.95 -22.18,-6.26 -33.1,-9.94 c 0.94,-0.41 2.26,-0.6 1.52,-1.92 c 1.46,-1.78 17.26,5.16 18.19,2.17 c -1.04,-0.84 -1.46,-1.95 -1.27,-3.31 c 0.39,-5.54 1.14,-11.03 2.24,-16.47 c 0.39,-2.26 5.41,-1.02 6.91,-0.75 c 2.81,1.49 5.58,3.04 8.33,4.63 c 3.08,0.81 6.16,1.62 9.24,2.42 c 1.11,0.58 2.24,1.13 3.38,1.64 c 1.04,1.71 -0.2,2.03 2.36,2.9 c -0.11,-0.81 -0.11,-1.62 -0.01,-2.42 c 0.86,-0.01 1.28,-0.43 1.26,-1.26 c -1.27,-1.76 -2.37,-3.64 -3.3,-5.63 c -2.56,-6.15 2.96,-13.39 3.47,-19.72 c 0.59,-0.69 1.15,-0.67 1.7,0.06 c 3.38,4.25 7.44,11.28 12.23,13.7 c 1.23,0.99 -0.66,4 1.3,3.39 c 0.07,-0.16 0.14,-0.32 0.21,-0.48 c -0.8,-0.91 -1.31,-1.94 -1.53,-3.1 c 1,-2.52 3.7,-4.62 0.05,-6.55 c 0.83,0.35 -2.82,0.09 -3.01,-0.38 c 0,-0.19 -0.01,-0.39 -0.01,-0.58 c 0.81,-0.46 1.61,-0.92 2.42,-1.38 c 3.76,-4.67 0.44,-7.5 2.09,-10.79 c -0.45,-0.43 -0.91,-0.85 -1.38,-1.27 c -0.65,-1.36 -0.5,-3.66 1.3,-3.97 c 0.42,0.71 0.74,1.48 0.93,2.31 c 0.63,-1.02 0.98,-2.13 1.05,-3.33 c 2.32,3.76 3.25,6.88 8.25,7.46 c 6.1,-0.1 7.42,-7.21 10.14,-11.32 c 0.83,-0.54 1.67,-1.06 2.52,-1.57 c 7.46,-2.18 8.86,-2.98 11.67,-10.46 c -0.19,-1.78 0.9,-4.03 3.03,-3.9 c 1.67,1.29 -0.86,2.26 -1.79,2.88 c -0.15,0.67 0.13,1 0.85,0.97 c 1.88,-1.61 3.73,-3.27 5.55,-4.96 c 0.05,0.05 0.09,0.11 0.11,0.18 c 1.07,-1.79 1.47,-3.71 1.2,-5.78 c -0.53,-2.53 -3.24,-2.52 -4.63,-4.41 c -0.22,0.71 -0.45,1.42 -0.68,2.11 c -3.42,0.6 -4.77,0.39 -4.21,-3.59 c 0.9,-0.48 1.83,-0.94 2.77,-1.38 c 1.37,-1.34 2.56,-2.82 3.57,-4.45 c 0.64,-0.86 0.28,-3.98 0.13,-5.15 c 1.24,-6.11 5.12,-10.95 7.72,-16.53 c 2.6,-3.09 5.25,-6.13 7.96,-9.13 c 6.53,-8.54 -3.4,-8.43 -5.3,-14.72 c -0.86,-0.44 -1.8,-0.65 -2.8,-0.64 c -2.38,-2.26 1.76,-3.62 3.34,-4.3 c 0.4,0.71 0.89,1.33 1.47,1.88 c 3.46,-0.65 7.14,2.5 10.31,3.55 c 8.79,3.05 15.37,-3.31 19.64,-10.21 c 0.84,-0.52 1.67,-1.04 2.47,-1.54 c 4.49,0.17 10.69,-1.83 14.82,0.12 Z"/></g>
<g><path fill="#b0c4f3" d="M 414.95,915.31 c 1.93,-0.89 28.58,5.36 32.77,6.23 c 2.93,0.55 22.92,2.15 23.43,3.55 c -0.86,2.19 -3,0.5 -4.49,0.28 c -10.39,0.38 -20.85,-3.5 -31.28,-4.23 c -4.63,-1.1 -16.88,-2.65 -20.03,-5.01 c -0.26,-0.21 -0.39,-0.49 -0.4,-0.82 Z"/></g>
<g><path fill="#bdcff3" d="M 549.63,760.39 c -4.13,-1.95 -10.33,0.05 -14.82,-0.12 c -18.24,1.15 -36.81,0.61 -54.82,-2.45 c 0.03,-0.88 0.5,-1.23 1.41,-1.07 c 5.18,1.01 10.18,0.36 15.33,0.98 c 2.55,0.63 5.14,0.96 7.77,1 c 8.67,-0.11 17.33,-0.06 26,0.14 c 1.7,-0.07 3.4,-0.19 5.09,-0.37 c 0.98,-0.36 1.98,-0.66 2.98,-0.92 c 2.95,0.16 5.9,0.1 8.84,-0.18 c 1.63,0.31 2.37,1.31 2.22,2.99 Z"/></g>
<g><path fill="#133bb4" stroke="#133bb4" stroke-width="0.5" d="M 597.19,810.81 c 13.97,14.39 27.67,29.02 41.1,43.91 c 7.81,19.16 -18.19,15.99 -18.63,19.47 c -3.24,5.61 1.38,28.75 4.57,31.61 c 1.31,1.22 -0.34,2 -1.23,2.59 c -6.02,-3.92 -11.89,-4.07 -17.7,1.39 c 0.01,0.16 0.02,0.32 0.03,0.48 c 0.72,0.42 1.42,0.85 2.1,1.3 c -0.91,0.87 -1.67,1.84 -2.28,2.93 c 1.31,1.31 3.96,-0.78 3.85,2.41 c -10.92,2.53 -21.93,4.65 -33.01,6.33 c 0.59,-0.57 1.16,-1.15 1.71,-1.74 c -1.56,-1.84 -5.03,1.4 -7.07,-1 c 3.27,-1.74 21.07,-3.03 22.02,-4.19 c -7.73,-11.91 -8.03,-23.3 -12.65,-36.32 c -2.81,-13.79 1.63,-61.74 17.56,-66.58 c -0.24,-0.85 -0.37,-1.71 -0.37,-2.59 Z"/></g>
<g><path fill="#1234a6" stroke="#1234a6" stroke-width="0.5" d="M 638.29,854.72 c 3.79,3.94 7.51,7.96 11.16,12.04 c -4.08,5.3 -12.62,17.14 -1.59,19.93 c 3.93,7.58 11.98,-0.55 16.58,6.82 c -0.43,0.91 -0.81,1.83 -1.14,2.76 c 1.32,0.28 2.56,0.8 3.69,1.54 c -18.95,7.52 -38.28,13.89 -57.99,19.09 c 0.11,-3.19 -2.54,-1.1 -3.85,-2.41 c 0.61,-1.09 1.37,-2.06 2.28,-2.93 c -0.68,-0.45 -1.38,-0.88 -2.1,-1.3 c -0.01,-0.16 -0.02,-0.32 -0.03,-0.48 c 5.81,-5.46 11.68,-5.31 17.7,-1.39 c 0.89,-0.59 2.54,-1.37 1.23,-2.59 c -3.19,-2.86 -7.81,-26 -4.57,-31.61 c 0.44,-3.48 26.44,-0.31 18.63,-19.47 Z"/></g>
<g><path fill="#15339e" stroke="#15339e" stroke-width="0.5" d="M 649.45,866.76 c 5.94,6.15 11.79,12.39 17.54,18.73 c 5.3,6.25 10.45,9.02 0,12.32 c -1.13,-0.74 -2.37,-1.26 -3.69,-1.54 c 0.33,-0.93 0.71,-1.85 1.14,-2.76 c -4.6,-7.37 -12.65,0.76 -16.58,-6.82 c -11.03,-2.79 -2.49,-14.63 1.59,-19.93 Z"/></g>
<g><path fill="#164acf" stroke="#164acf" stroke-width="0.5" d="M 562.28,773.74 c 3.59,3.95 7.28,7.81 11.05,11.59 c -1.24,-0.34 -2.49,-0.72 -3.74,-1.13 c -6.48,-0.94 -9.08,5 -9.09,10.45 c 0.49,5.61 0.94,11.23 1.34,16.85 c -0.25,1.75 0.5,5.82 -0.53,7.17 c -0.37,-0.85 -0.72,-1.7 -1.06,-2.53 c -0.83,0.08 -1.18,0.54 -1.04,1.4 c 2.34,6.07 2.95,12.33 1.82,18.76 c 1.84,11.16 0.17,22.08 -1.38,33.15 c -0.56,1.55 -1.11,3.09 -1.66,4.64 c -0.96,1.64 -1.94,3.25 -2.96,4.84 c -0.48,1.83 -0.95,3.67 -1.42,5.51 c -0.43,8.03 -1.15,17.84 0.01,25.73 c 0.79,3.47 2.66,6.21 5.61,8.2 c 1.47,0.48 2.94,0.86 4.42,1.14 c -0.31,1.79 -8.42,2.52 -10.19,2.45 c -1.38,0.36 -1.39,0.85 -0.05,1.46 c 4.03,-0.04 8.07,-0.09 12.1,-0.16 c 0.76,-0.04 1.26,0.3 1.51,1.01 c -7.66,1.14 -15.36,1.88 -23.1,2.22 c -1.01,-0.79 -2.15,-1.2 -3.43,-1.25 c -10.69,0.15 -21.38,0.18 -32.07,0.08 c -0.49,-0.1 -0.85,-0.37 -1.08,-0.8 c 1.92,-1.07 8.64,-0.28 11.17,-0.59 c 3.28,-1.32 19.09,-0.26 20.14,-1.39 c -1.45,-0.32 -2.9,-0.73 -4.34,-1.23 c -6.93,1.59 -7.81,-3.37 -8.43,-8.65 c -0.53,-0.72 -1.03,-1.44 -1.53,-2.16 c 0.95,-1.28 1.82,-2.62 2.6,-4.03 c 0.71,-1.39 3.57,-1.57 3.64,-2.95 c -1.3,-3.12 -0.32,-8.5 -0.54,-11.98 c 0.65,-1.37 1.3,-2.74 1.93,-4.12 c 0.04,-1.89 0,-3.77 -0.13,-5.65 c -0.77,-0.96 -1.36,-2 -1.76,-3.12 c 0.57,-0.79 1.16,-1.56 1.78,-2.31 c 1.32,-4.55 -5.22,-2.87 -2.26,-9.88 c -1.35,-3.11 -0.22,-12.16 -0.59,-16.01 c 0.32,-1.33 0.66,-1.31 1.01,0.08 c 0.35,1.02 -0.88,5.81 1.24,5.37 c 0.58,-1.41 1.03,-2.87 1.36,-4.39 c -2.81,-5.51 2.58,-7.32 5.21,-11.19 c 0.26,-3.7 0.53,-6.3 -0.84,-9.81 c 0.21,-1.6 1.34,-2.19 0.99,-4 c -0.68,-1.26 -1.28,-2.54 -1.81,-3.83 c 0.56,-0.76 1.1,-1.53 1.61,-2.33 c 0.64,-2.69 1.31,-5.37 2.02,-8.05 c -0.14,-1.54 -0.35,-3.07 -0.63,-4.6 c 2.35,-1.94 4.57,-4.03 6.66,-6.27 c 0.79,-2.06 2.28,-5.89 1.52,-7.94 c 0.56,-0.96 1.27,-1.79 2.15,-2.5 c 1.14,-4.45 -0.13,-4.57 4.78,-5.21 c 2.14,-2.83 4.52,-1.91 5.92,-6.11 c 2.03,-2.24 2.53,-0.56 4.52,-1.05 c -0.67,-1.61 -3.62,-2.89 -2.45,-4.88 Z"/></g>
<g><path fill="#1444c4" stroke="#1444c4" stroke-width="0.5" d="M 573.33,785.33 c 8.12,8.34 16.07,16.84 23.86,25.48 c 0,0.88 0.13,1.74 0.37,2.59 c -15.93,4.84 -20.37,52.79 -17.56,66.58 c 4.62,13.02 4.92,24.41 12.65,36.32 c -0.95,1.16 -18.75,2.45 -22.02,4.19 c 2.04,2.4 5.51,-0.84 7.07,1 c -0.55,0.59 -1.12,1.17 -1.71,1.74 c -2.97,0.51 -5.96,0.85 -8.97,1.04 c -0.25,-0.71 -0.75,-1.05 -1.51,-1.01 c -4.03,0.07 -8.07,0.12 -12.1,0.16 c -1.34,-0.61 -1.33,-1.1 0.05,-1.46 c 1.77,0.07 9.88,-0.66 10.19,-2.45 c -1.48,-0.28 -2.95,-0.66 -4.42,-1.14 c -2.95,-1.99 -4.82,-4.73 -5.61,-8.2 c -1.16,-7.89 -0.44,-17.7 -0.01,-25.73 c 0.47,-1.84 0.94,-3.68 1.42,-5.51 c 1.02,-1.59 2,-3.2 2.96,-4.84 c 0.55,-1.55 1.1,-3.09 1.66,-4.64 c 1.55,-11.07 3.22,-21.99 1.38,-33.15 c 1.13,-6.43 0.52,-12.69 -1.82,-18.76 c -0.14,-0.86 0.21,-1.32 1.04,-1.4 c 0.34,0.83 0.69,1.68 1.06,2.53 c 1.03,-1.35 0.28,-5.42 0.53,-7.17 c -0.4,-5.62 -0.85,-11.24 -1.34,-16.85 c 0.01,-5.45 2.61,-11.39 9.09,-10.45 c 1.25,0.41 2.5,0.79 3.74,1.13 Z"/></g>
</svg>
